  0
SECTION
  2
HEADER
  9
$ACADVER
  1
AC1015
  9
$ACADMAINTVER
 70
6
  9
$DWGCODEPAGE
  3
ANSI_1252
  9
$INSBASE
 10
0.0
 20
0.0
 30
0.0
  9
$EXTMIN
 10
1e+20
 20
1e+20
 30
1e+20
  9
$EXTMAX
 10
-1e+20
 20
-1e+20
 30
-1e+20
  9
$LIMMIN
 10
0.0
 20
0.0
  9
$LIMMAX
 10
420.0
 20
297.0
  9
$ORTHOMODE
 70
0
  9
$REGENMODE
 70
1
  9
$FILLMODE
 70
1
  9
$QTEXTMODE
 70
0
  9
$MIRRTEXT
 70
1
  9
$LTSCALE
 40
1.0
  9
$ATTMODE
 70
1
  9
$TEXTSIZE
 40
2.5
  9
$TRACEWID
 40
1.0
  9
$TEXTSTYLE
  7
OpenSans
  9
$CLAYER
  8
0
  9
$CELTYPE
  6
ByLayer
  9
$CECOLOR
 62
256
  9
$CELTSCALE
 40
1.0
  9
$DISPSILH
 70
0
  9
$DIMSCALE
 40
1.0
  9
$DIMASZ
 40
0.175
  9
$DIMEXO
 40
0.125
  9
$DIMDLI
 40
3.75
  9
$DIMRND
 40
0.0
  9
$DIMDLE
 40
0.0
  9
$DIMEXE
 40
0.375
  9
$DIMTP
 40
0.0
  9
$DIMTM
 40
0.0
  9
$DIMTXT
 40
0.25
  9
$DIMCEN
 40
2.5
  9
$DIMTSZ
 40
0.0
  9
$DIMTOL
 70
0
  9
$DIMLIM
 70
0
  9
$DIMTIH
 70
0
  9
$DIMTOH
 70
0
  9
$DIMSE1
 70
0
  9
$DIMSE2
 70
0
  9
$DIMTAD
 70
1
  9
$DIMZIN
 70
12
  9
$DIMBLK
  1
ARCHTICK
  9
$DIMASO
 70
1
  9
$DIMSHO
 70
1
  9
$DIMPOST
  1

  9
$DIMAPOST
  1

  9
$DIMALT
 70
0
  9
$DIMALTD
 70
3
  9
$DIMALTF
 40
0.03937007874
  9
$DIMLFAC
 40
100.0
  9
$DIMTOFL
 70
1
  9
$DIMTVP
 40
0.0
  9
$DIMTIX
 70
0
  9
$DIMSOXD
 70
0
  9
$DIMSAH
 70
0
  9
$DIMBLK1
  1

  9
$DIMBLK2
  1

  9
$DIMSTYLE
  2
EZDXF
  9
$DIMCLRD
 70
0
  9
$DIMCLRE
 70
0
  9
$DIMCLRT
 70
0
  9
$DIMTFAC
 40
0.5
  9
$DIMGAP
 40
0.1
  9
$DIMJUST
 70
0
  9
$DIMSD1
 70
0
  9
$DIMSD2
 70
0
  9
$DIMTOLJ
 70
0
  9
$DIMTZIN
 70
8
  9
$DIMALTZ
 70
0
  9
$DIMALTTZ
 70
0
  9
$DIMUPT
 70
1
  9
$DIMDEC
 70
2
  9
$DIMTDEC
 70
2
  9
$DIMALTU
 70
2
  9
$DIMALTTD
 70
3
  9
$DIMTXSTY
  7
OpenSansCondensed-Light
  9
$DIMAUNIT
 70
0
  9
$DIMADEC
 70
2
  9
$DIMALTRND
 40
0.0
  9
$DIMAZIN
 70
3
  9
$DIMDSEP
 70
46
  9
$DIMATFIT
 70
3
  9
$DIMFRAC
 70
0
  9
$DIMLDRBLK
  1

  9
$DIMLUNIT
 70
2
  9
$DIMLWD
 70
-2
  9
$DIMLWE
 70
-2
  9
$DIMTMOVE
 70
2
  9
$LUNITS
 70
2
  9
$LUPREC
 70
4
  9
$SKETCHINC
 40
1.0
  9
$FILLETRAD
 40
10.0
  9
$AUNITS
 70
0
  9
$AUPREC
 70
2
  9
$MENU
  1
.
  9
$ELEVATION
 40
0.0
  9
$PELEVATION
 40
0.0
  9
$THICKNESS
 40
0.0
  9
$LIMCHECK
 70
0
  9
$CHAMFERA
 40
0.0
  9
$CHAMFERB
 40
0.0
  9
$CHAMFERC
 40
0.0
  9
$CHAMFERD
 40
0.0
  9
$SKPOLY
 70
0
  9
$TDCREATE
 40
2461271.538078704
  9
$TDUCREATE
 40
2458532.153996898
  9
$TDUPDATE
 40
2461271.538078704
  9
$TDUUPDATE
 40
2458532.1544311
  9
$TDINDWG
 40
0.0
  9
$TDUSRTIMER
 40
0.0
  9
$USRTIMER
 70
1
  9
$ANGBASE
 50
0.0
  9
$ANGDIR
 70
0
  9
$PDMODE
 70
0
  9
$PDSIZE
 40
0.0
  9
$PLINEWID
 40
0.0
  9
$SPLFRAME
 70
0
  9
$SPLINETYPE
 70
6
  9
$SPLINESEGS
 70
8
  9
$HANDSEED
  5
DA
  9
$SURFTAB1
 70
6
  9
$SURFTAB2
 70
6
  9
$SURFTYPE
 70
6
  9
$SURFU
 70
6
  9
$SURFV
 70
6
  9
$UCSBASE
  2

  9
$UCSNAME
  2

  9
$UCSORG
 10
0.0
 20
0.0
 30
0.0
  9
$UCSXDIR
 10
1.0
 20
0.0
 30
0.0
  9
$UCSYDIR
 10
0.0
 20
1.0
 30
0.0
  9
$UCSORTHOREF
  2

  9
$UCSORTHOVIEW
 70
0
  9
$UCSORGTOP
 10
0.0
 20
0.0
 30
0.0
  9
$UCSORGBOTTOM
 10
0.0
 20
0.0
 30
0.0
  9
$UCSORGLEFT
 10
0.0
 20
0.0
 30
0.0
  9
$UCSORGRIGHT
 10
0.0
 20
0.0
 30
0.0
  9
$UCSORGFRONT
 10
0.0
 20
0.0
 30
0.0
  9
$UCSORGBACK
 10
0.0
 20
0.0
 30
0.0
  9
$PUCSBASE
  2

  9
$PUCSNAME
  2

  9
$PUCSORG
 10
0.0
 20
0.0
 30
0.0
  9
$PUCSXDIR
 10
1.0
 20
0.0
 30
0.0
  9
$PUCSYDIR
 10
0.0
 20
1.0
 30
0.0
  9
$PUCSORTHOREF
  2

  9
$PUCSORTHOVIEW
 70
0
  9
$PUCSORGTOP
 10
0.0
 20
0.0
 30
0.0
  9
$PUCSORGBOTTOM
 10
0.0
 20
0.0
 30
0.0
  9
$PUCSORGLEFT
 10
0.0
 20
0.0
 30
0.0
  9
$PUCSORGRIGHT
 10
0.0
 20
0.0
 30
0.0
  9
$PUCSORGFRONT
 10
0.0
 20
0.0
 30
0.0
  9
$PUCSORGBACK
 10
0.0
 20
0.0
 30
0.0
  9
$USERI1
 70
0
  9
$USERI2
 70
0
  9
$USERI3
 70
0
  9
$USERI4
 70
0
  9
$USERI5
 70
0
  9
$USERR1
 40
0.0
  9
$USERR2
 40
0.0
  9
$USERR3
 40
0.0
  9
$USERR4
 40
0.0
  9
$USERR5
 40
0.0
  9
$WORLDVIEW
 70
1
  9
$SHADEDGE
 70
3
  9
$SHADEDIF
 70
70
  9
$TILEMODE
 70
1
  9
$MAXACTVP
 70
64
  9
$PINSBASE
 10
0.0
 20
0.0
 30
0.0
  9
$PLIMCHECK
 70
0
  9
$PEXTMIN
 10
1e+20
 20
1e+20
 30
1e+20
  9
$PEXTMAX
 10
-1e+20
 20
-1e+20
 30
-1e+20
  9
$PLIMMIN
 10
0.0
 20
0.0
  9
$PLIMMAX
 10
420.0
 20
297.0
  9
$UNITMODE
 70
0
  9
$VISRETAIN
 70
1
  9
$PLINEGEN
 70
0
  9
$PSLTSCALE
 70
1
  9
$TREEDEPTH
 70
3020
  9
$CMLSTYLE
  2
Standard
  9
$CMLJUST
 70
0
  9
$CMLSCALE
 40
20.0
  9
$PROXYGRAPHICS
 70
1
  9
$MEASUREMENT
 70
1
  9
$CELWEIGHT
370
-1
  9
$ENDCAPS
280
0
  9
$JOINSTYLE
280
0
  9
$LWDISPLAY
290
0
  9
$INSUNITS
 70
4
  9
$HYPERLINKBASE
  1

  9
$STYLESHEET
  1

  9
$XEDIT
290
1
  9
$CEPSNTYPE
380
0
  9
$PSTYLEMODE
290
1
  9
$FINGERPRINTGUID
  2
{C03BF2F3-6AD8-4783-A0EB-BDC9AE756D1C}
  9
$VERSIONGUID
  2
{8225B414-9E59-4242-B681-F9B048E7705F}
  9
$EXTNAMES
290
1
  9
$PSVPSCALE
 40
0.0
  9
$OLESTARTUP
290
0
  0
ENDSEC
  0
SECTION
  2
CLASSES
  0
CLASS
  1
ACDBDICTIONARYWDFLT
  2
AcDbDictionaryWithDefault
  3
ObjectDBX Classes
 90
0
280
0
281
0
  0
CLASS
  1
SUN
  2
AcDbSun
  3
SCENEOE
 90
1153
280
0
281
0
  0
CLASS
  1
VISUALSTYLE
  2
AcDbVisualStyle
  3
ObjectDBX Classes
 90
4095
280
0
281
0
  0
CLASS
  1
MATERIAL
  2
AcDbMaterial
  3
ObjectDBX Classes
 90
1153
280
0
281
0
  0
CLASS
  1
SCALE
  2
AcDbScale
  3
ObjectDBX Classes
 90
1153
280
0
281
0
  0
CLASS
  1
TABLESTYLE
  2
AcDbTableStyle
  3
ObjectDBX Classes
 90
4095
280
0
281
0
  0
CLASS
  1
MLEADERSTYLE
  2
AcDbMLeaderStyle
  3
ACDB_MLEADERSTYLE_CLASS
 90
4095
280
0
281
0
  0
CLASS
  1
DICTIONARYVAR
  2
AcDbDictionaryVar
  3
ObjectDBX Classes
 90
0
280
0
281
0
  0
CLASS
  1
CELLSTYLEMAP
  2
AcDbCellStyleMap
  3
ObjectDBX Classes
 90
1152
280
0
281
0
  0
CLASS
  1
MENTALRAYRENDERSETTINGS
  2
AcDbMentalRayRenderSettings
  3
SCENEOE
 90
1024
280
0
281
0
  0
CLASS
  1
ACDBDETAILVIEWSTYLE
  2
AcDbDetailViewStyle
  3
ObjectDBX Classes
 90
1025
280
0
281
0
  0
CLASS
  1
ACDBSECTIONVIEWSTYLE
  2
AcDbSectionViewStyle
  3
ObjectDBX Classes
 90
1025
280
0
281
0
  0
CLASS
  1
RASTERVARIABLES
  2
AcDbRasterVariables
  3
ISM
 90
0
280
0
281
0
  0
CLASS
  1
ACDBPLACEHOLDER
  2
AcDbPlaceHolder
  3
ObjectDBX Classes
 90
0
280
0
281
0
  0
CLASS
  1
LAYOUT
  2
AcDbLayout
  3
ObjectDBX Classes
 90
0
280
0
281
0
  0
ENDSEC
  0
SECTION
  2
TABLES
  0
TABLE
  2
VPORT
  5
8
330
0
100
AcDbSymbolTable
 70
1
  0
VPORT
  5
23
330
8
100
AcDbSymbolTableRecord
100
AcDbViewportTableRecord
  2
*Active
 70
0
 10
0.0
 20
0.0
 11
1.0
 21
1.0
 12
0.0
 22
0.0
 13
0.0
 23
0.0
 14
0.5
 24
0.5
 15
0.5
 25
0.5
 16
0.0
 26
0.0
 36
1.0
 17
0.0
 27
0.0
 37
0.0
 40
1000.0
 41
1.34
 42
50.0
 43
0.0
 44
0.0
 50
0.0
 51
0.0
 71
0
 72
1000
 73
1
 74
3
 75
0
 76
0
 77
0
 78
0
281
0
 65
0
146
0.0
  0
ENDTAB
  0
TABLE
  2
LTYPE
  5
2
330
0
100
AcDbSymbolTable
 70
21
  0
LTYPE
  5
24
330
2
100
AcDbSymbolTableRecord
100
AcDbLinetypeTableRecord
  2
ByBlock
 70
0
  3

 72
65
 73
0
 40
0.0
  0
LTYPE
  5
25
330
2
100
AcDbSymbolTableRecord
100
AcDbLinetypeTableRecord
  2
ByLayer
 70
0
  3

 72
65
 73
0
 40
0.0
  0
LTYPE
  5
26
330
2
100
AcDbSymbolTableRecord
100
AcDbLinetypeTableRecord
  2
Continuous
 70
0
  3

 72
65
 73
0
 40
0.0
  0
LTYPE
  5
2F
330
2
100
AcDbSymbolTableRecord
100
AcDbLinetypeTableRecord
  2
CENTER
 70
0
  3
Center ____ _ ____ _ ____ _ ____ _ ____ _ ____
 72
65
 73
4
 40
5.08
 49
3.175
 74
0
 49
-0.635
 74
0
 49
0.635
 74
0
 49
-0.635
 74
0
  0
LTYPE
  5
30
330
2
100
AcDbSymbolTableRecord
100
AcDbLinetypeTableRecord
  2
CENTERX2
 70
0
  3
Center (2x) ________  __  ________  __  ________
 72
65
 73
4
 40
8.89
 49
6.35
 74
0
 49
-0.635
 74
0
 49
1.27
 74
0
 49
-0.635
 74
0
  0
LTYPE
  5
31
330
2
100
AcDbSymbolTableRecord
100
AcDbLinetypeTableRecord
  2
CENTER2
 70
0
  3
Center (.5x) ____ _ ____ _ ____ _ ____ _ ____
 72
65
 73
4
 40
2.54
 49
1.587
 74
0
 49
-0.318
 74
0
 49
0.318
 74
0
 49
-0.318
 74
0
  0
LTYPE
  5
32
330
2
100
AcDbSymbolTableRecord
100
AcDbLinetypeTableRecord
  2
DASHED
 70
0
  3
Dashed __ __ __ __ __ __ __ __ __ __ __ __ __ _
 72
65
 73
2
 40
1.524
 49
1.27
 74
0
 49
-0.254
 74
0
  0
LTYPE
  5
33
330
2
100
AcDbSymbolTableRecord
100
AcDbLinetypeTableRecord
  2
DASHEDX2
 70
0
  3
Dashed (2x) ____  ____  ____  ____  ____  ____
 72
65
 73
2
 40
3.048
 49
2.54
 74
0
 49
-0.508
 74
0
  0
LTYPE
  5
34
330
2
100
AcDbSymbolTableRecord
100
AcDbLinetypeTableRecord
  2
DASHED2
 70
0
  3
Dashed (.5x) _ _ _ _ _ _ _ _ _ _ _ _ _ _
 72
65
 73
2
 40
0.762
 49
0.635
 74
0
 49
-0.127
 74
0
  0
LTYPE
  5
35
330
2
100
AcDbSymbolTableRecord
100
AcDbLinetypeTableRecord
  2
PHANTOM
 70
0
  3
Phantom ______  __  __  ______  __  __  ______
 72
65
 73
6
 40
6.35
 49
3.175
 74
0
 49
-0.635
 74
0
 49
0.635
 74
0
 49
-0.635
 74
0
 49
0.635
 74
0
 49
-0.635
 74
0
  0
LTYPE
  5
36
330
2
100
AcDbSymbolTableRecord
100
AcDbLinetypeTableRecord
  2
PHANTOMX2
 70
0
  3
Phantom (2x)____________    ____    ____    ____________
 72
65
 73
6
 40
10.795
 49
6.35
 74
0
 49
-0.635
 74
0
 49
1.27
 74
0
 49
-0.635
 74
0
 49
1.27
 74
0
 49
-0.635
 74
0
  0
LTYPE
  5
37
330
2
100
AcDbSymbolTableRecord
100
AcDbLinetypeTableRecord
  2
PHANTOM2
 70
0
  3
Phantom (.5x) ___ _ _ ___ _ _ ___ _ _ ___ _ _ ___
 72
65
 73
6
 40
3.175
 49
1.587
 74
0
 49
-0.318
 74
0
 49
0.318
 74
0
 49
-0.318
 74
0
 49
0.318
 74
0
 49
-0.318
 74
0
  0
LTYPE
  5
38
330
2
100
AcDbSymbolTableRecord
100
AcDbLinetypeTableRecord
  2
DASHDOT
 70
0
  3
Dash dot __ . __ . __ . __ . __ . __ . __ . __
 72
65
 73
4
 40
3.556
 49
2.54
 74
0
 49
-0.508
 74
0
 49
0.0
 74
0
 49
-0.508
 74
0
  0
LTYPE
  5
39
330
2
100
AcDbSymbolTableRecord
100
AcDbLinetypeTableRecord
  2
DASHDOTX2
 70
0
  3
Dash dot (2x) ____  .  ____  .  ____  .  ____
 72
65
 73
4
 40
6.096
 49
5.08
 74
0
 49
-0.508
 74
0
 49
0.0
 74
0
 49
-0.508
 74
0
  0
LTYPE
  5
3A
330
2
100
AcDbSymbolTableRecord
100
AcDbLinetypeTableRecord
  2
DASHDOT2
 70
0
  3
Dash dot (.5x) _ . _ . _ . _ . _ . _ . _ . _
 72
65
 73
4
 40
1.778
 49
1.27
 74
0
 49
-0.254
 74
0
 49
0.0
 74
0
 49
-0.254
 74
0
  0
LTYPE
  5
3B
330
2
100
AcDbSymbolTableRecord
100
AcDbLinetypeTableRecord
  2
DOT
 70
0
  3
Dot .  .  .  .  .  .  .  .  .  .  .  .  .  .  .  .
 72
65
 73
2
 40
0.508
 49
0.0
 74
0
 49
-0.508
 74
0
  0
LTYPE
  5
3C
330
2
100
AcDbSymbolTableRecord
100
AcDbLinetypeTableRecord
  2
DOTX2
 70
0
  3
Dot (2x) .    .    .    .    .    .    .    . 
 72
65
 73
2
 40
1.016
 49
0.0
 74
0
 49
-1.016
 74
0
  0
LTYPE
  5
3D
330
2
100
AcDbSymbolTableRecord
100
AcDbLinetypeTableRecord
  2
DOT2
 70
0
  3
Dot (.5) . . . . . . . . . . . . . . . . . . . 
 72
65
 73
2
 40
0.254
 49
0.0
 74
0
 49
-0.254
 74
0
  0
LTYPE
  5
3E
330
2
100
AcDbSymbolTableRecord
100
AcDbLinetypeTableRecord
  2
DIVIDE
 70
0
  3
Divide __ . . __ . . __ . . __ . . __ . . __
 72
65
 73
6
 40
4.064
 49
2.54
 74
0
 49
-0.508
 74
0
 49
0.0
 74
0
 49
-0.508
 74
0
 49
0.0
 74
0
 49
-0.508
 74
0
  0
LTYPE
  5
3F
330
2
100
AcDbSymbolTableRecord
100
AcDbLinetypeTableRecord
  2
DIVIDEX2
 70
0
  3
Divide (2x) ____  . .  ____  . .  ____  . .  ____
 72
65
 73
6
 40
6.604
 49
5.08
 74
0
 49
-0.508
 74
0
 49
0.0
 74
0
 49
-0.508
 74
0
 49
0.0
 74
0
 49
-0.508
 74
0
  0
LTYPE
  5
40
330
2
100
AcDbSymbolTableRecord
100
AcDbLinetypeTableRecord
  2
DIVIDE2
 70
0
  3
Divide(.5x) _ . _ . _ . _ . _ . _ . _ . _
 72
65
 73
6
 40
2.032
 49
1.27
 74
0
 49
-0.254
 74
0
 49
0.0
 74
0
 49
-0.254
 74
0
 49
0.0
 74
0
 49
-0.254
 74
0
  0
ENDTAB
  0
TABLE
  2
LAYER
  5
1
330
0
100
AcDbSymbolTable
 70
5
  0
LAYER
  5
27
330
1
100
AcDbSymbolTableRecord
100
AcDbLayerTableRecord
  2
0
 70
0
 62
7
  6
Continuous
370
-3
390
13
  0
LAYER
  5
28
330
1
100
AcDbSymbolTableRecord
100
AcDbLayerTableRecord
  2
Defpoints
 70
0
 62
7
  6
Continuous
290
0
370
-3
390
13
  0
LAYER
  5
8A
330
1
100
AcDbSymbolTableRecord
100
AcDbLayerTableRecord
  2
PANEL-PROFILE
 70
0
 62
1
  6
Continuous
370
-3
390
13
  0
LAYER
  5
8B
330
1
100
AcDbSymbolTableRecord
100
AcDbLayerTableRecord
  2
HOLES-9-32
 70
0
 62
5
  6
Continuous
370
-3
390
13
  0
LAYER
  5
8C
330
1
100
AcDbSymbolTableRecord
100
AcDbLayerTableRecord
  2
REF-ARTWORK
 70
0
 62
8
  6
Continuous
370
-3
390
13
  0
ENDTAB
  0
TABLE
  2
STYLE
  5
5
330
0
100
AcDbSymbolTable
 70
26
  0
STYLE
  5
29
330
5
100
AcDbSymbolTableRecord
100
AcDbTextStyleTableRecord
  2
Standard
 70
0
 40
0.0
 41
1.0
 50
0.0
 71
0
 42
2.5
  3
txt
  4

  0
STYLE
  5
41
330
5
100
AcDbSymbolTableRecord
100
AcDbTextStyleTableRecord
  2
OpenSans-Light
 70
0
 40
0.0
 41
1.0
 50
0.0
 71
0
 42
2.5
  3
OpenSans-Light.ttf
  4

  0
STYLE
  5
42
330
5
100
AcDbSymbolTableRecord
100
AcDbTextStyleTableRecord
  2
OpenSans-Light-Italic
 70
0
 40
0.0
 41
1.0
 50
0.0
 71
0
 42
2.5
  3
OpenSans-LightItalic.ttf
  4

  0
STYLE
  5
43
330
5
100
AcDbSymbolTableRecord
100
AcDbTextStyleTableRecord
  2
OpenSans
 70
0
 40
0.0
 41
1.0
 50
0.0
 71
0
 42
2.5
  3
OpenSans-Regular.ttf
  4

  0
STYLE
  5
44
330
5
100
AcDbSymbolTableRecord
100
AcDbTextStyleTableRecord
  2
OpenSans-Italic
 70
0
 40
0.0
 41
1.0
 50
0.0
 71
0
 42
2.5
  3
OpenSans-Italic.ttf
  4

  0
STYLE
  5
45
330
5
100
AcDbSymbolTableRecord
100
AcDbTextStyleTableRecord
  2
OpenSans-SemiBold
 70
0
 40
0.0
 41
1.0
 50
0.0
 71
0
 42
2.5
  3
OpenSans-SemiBold.ttf
  4

  0
STYLE
  5
46
330
5
100
AcDbSymbolTableRecord
100
AcDbTextStyleTableRecord
  2
OpenSans-SemiBoldItalic
 70
0
 40
0.0
 41
1.0
 50
0.0
 71
0
 42
2.5
  3
OpenSans-SemiBoldItalic.ttf
  4

  0
STYLE
  5
47
330
5
100
AcDbSymbolTableRecord
100
AcDbTextStyleTableRecord
  2
OpenSans-Bold
 70
0
 40
0.0
 41
1.0
 50
0.0
 71
0
 42
2.5
  3
OpenSans-Bold.ttf
  4

  0
STYLE
  5
48
330
5
100
AcDbSymbolTableRecord
100
AcDbTextStyleTableRecord
  2
OpenSans-BoldItalic
 70
0
 40
0.0
 41
1.0
 50
0.0
 71
0
 42
2.5
  3
OpenSans-BoldItalic.ttf
  4

  0
STYLE
  5
49
330
5
100
AcDbSymbolTableRecord
100
AcDbTextStyleTableRecord
  2
OpenSans-ExtraBold
 70
0
 40
0.0
 41
1.0
 50
0.0
 71
0
 42
2.5
  3
OpenSans-ExtraBold.ttf
  4

  0
STYLE
  5
4A
330
5
100
AcDbSymbolTableRecord
100
AcDbTextStyleTableRecord
  2
OpenSans-ExtraBoldItalic
 70
0
 40
0.0
 41
1.0
 50
0.0
 71
0
 42
2.5
  3
OpenSans-ExtraBoldItalic.ttf
  4

  0
STYLE
  5
4B
330
5
100
AcDbSymbolTableRecord
100
AcDbTextStyleTableRecord
  2
OpenSansCondensed-Bold
 70
0
 40
0.0
 41
1.0
 50
0.0
 71
0
 42
2.5
  3
OpenSansCondensed-Bold.ttf
  4

  0
STYLE
  5
4C
330
5
100
AcDbSymbolTableRecord
100
AcDbTextStyleTableRecord
  2
OpenSansCondensed-Light
 70
0
 40
0.0
 41
1.0
 50
0.0
 71
0
 42
2.5
  3
OpenSansCondensed-Light.ttf
  4

  0
STYLE
  5
4D
330
5
100
AcDbSymbolTableRecord
100
AcDbTextStyleTableRecord
  2
OpenSansCondensed-Italic
 70
0
 40
0.0
 41
1.0
 50
0.0
 71
0
 42
2.5
  3
OpenSansCondensed-LightItalic.ttf
  4

  0
STYLE
  5
4E
330
5
100
AcDbSymbolTableRecord
100
AcDbTextStyleTableRecord
  2
LiberationSans
 70
0
 40
0.0
 41
1.0
 50
0.0
 71
0
 42
2.5
  3
LiberationSans-Regular.ttf
  4

  0
STYLE
  5
4F
330
5
100
AcDbSymbolTableRecord
100
AcDbTextStyleTableRecord
  2
LiberationSans-Bold
 70
0
 40
0.0
 41
1.0
 50
0.0
 71
0
 42
2.5
  3
LiberationSans-Bold.ttf
  4

  0
STYLE
  5
50
330
5
100
AcDbSymbolTableRecord
100
AcDbTextStyleTableRecord
  2
LiberationSans-BoldItalic
 70
0
 40
0.0
 41
1.0
 50
0.0
 71
0
 42
2.5
  3
LiberationSans-BoldItalic.ttf
  4

  0
STYLE
  5
51
330
5
100
AcDbSymbolTableRecord
100
AcDbTextStyleTableRecord
  2
LiberationSans-Italic
 70
0
 40
0.0
 41
1.0
 50
0.0
 71
0
 42
2.5
  3
LiberationSans-Italic.ttf
  4

  0
STYLE
  5
52
330
5
100
AcDbSymbolTableRecord
100
AcDbTextStyleTableRecord
  2
LiberationSerif
 70
0
 40
0.0
 41
1.0
 50
0.0
 71
0
 42
2.5
  3
LiberationSerif-Regular.ttf
  4

  0
STYLE
  5
53
330
5
100
AcDbSymbolTableRecord
100
AcDbTextStyleTableRecord
  2
LiberationSerif-Bold
 70
0
 40
0.0
 41
1.0
 50
0.0
 71
0
 42
2.5
  3
LiberationSerif-Bold.ttf
  4

  0
STYLE
  5
54
330
5
100
AcDbSymbolTableRecord
100
AcDbTextStyleTableRecord
  2
LiberationSerif-BoldItalic
 70
0
 40
0.0
 41
1.0
 50
0.0
 71
0
 42
2.5
  3
LiberationSerif-BoldItalic.ttf
  4

  0
STYLE
  5
55
330
5
100
AcDbSymbolTableRecord
100
AcDbTextStyleTableRecord
  2
LiberationSerif-Italic
 70
0
 40
0.0
 41
1.0
 50
0.0
 71
0
 42
2.5
  3
LiberationSerif-Italic.ttf
  4

  0
STYLE
  5
56
330
5
100
AcDbSymbolTableRecord
100
AcDbTextStyleTableRecord
  2
LiberationMono
 70
0
 40
0.0
 41
1.0
 50
0.0
 71
0
 42
2.5
  3
LiberationMono-Regular.ttf
  4

  0
STYLE
  5
57
330
5
100
AcDbSymbolTableRecord
100
AcDbTextStyleTableRecord
  2
LiberationMono-Bold
 70
0
 40
0.0
 41
1.0
 50
0.0
 71
0
 42
2.5
  3
LiberationMono-Bold.ttf
  4

  0
STYLE
  5
58
330
5
100
AcDbSymbolTableRecord
100
AcDbTextStyleTableRecord
  2
LiberationMono-BoldItalic
 70
0
 40
0.0
 41
1.0
 50
0.0
 71
0
 42
2.5
  3
LiberationMono-BoldItalic.ttf
  4

  0
STYLE
  5
59
330
5
100
AcDbSymbolTableRecord
100
AcDbTextStyleTableRecord
  2
LiberationMono-Italic
 70
0
 40
0.0
 41
1.0
 50
0.0
 71
0
 42
2.5
  3
LiberationMono-Italic.ttf
  4

  0
ENDTAB
  0
TABLE
  2
VIEW
  5
7
330
0
100
AcDbSymbolTable
 70
0
  0
ENDTAB
  0
TABLE
  2
UCS
  5
6
330
0
100
AcDbSymbolTable
 70
0
  0
ENDTAB
  0
TABLE
  2
APPID
  5
3
330
0
100
AcDbSymbolTable
 70
3
  0
APPID
  5
2A
330
3
100
AcDbSymbolTableRecord
100
AcDbRegAppTableRecord
  2
ACAD
 70
0
  0
APPID
  5
D7
330
3
100
AcDbSymbolTableRecord
100
AcDbRegAppTableRecord
  2
HATCHBACKGROUNDCOLOR
 70
0
  0
APPID
  5
D8
330
3
100
AcDbSymbolTableRecord
100
AcDbRegAppTableRecord
  2
EZDXF
 70
0
  0
ENDTAB
  0
TABLE
  2
DIMSTYLE
  5
4
330
0
100
AcDbSymbolTable
 70
12
100
AcDbDimStyleTable
  0
DIMSTYLE
105
2B
330
4
100
AcDbSymbolTableRecord
100
AcDbDimStyleTableRecord
  2
Standard
 70
0
  3

  4

 40
1.0
 41
2.5
 42
0.625
 43
3.75
 44
1.25
 45
0.0
 46
0.0
 47
0.0
 48
0.0
140
2.5
141
2.5
142
0.0
143
0.03937007874
144
1.0
145
0.0
146
1.0
147
0.625
148
0.0
 71
0
 72
0
 73
0
 74
0
 75
0
 76
0
 77
1
 78
8
 79
3
170
0
171
3
172
1
173
0
174
0
175
0
176
0
177
0
178
0
179
2
271
2
272
2
273
2
274
3
275
0
276
0
277
2
278
44
279
0
280
0
281
0
282
0
283
0
284
8
285
0
286
0
288
0
289
3
371
-2
372
-2
  0
DIMSTYLE
105
73
330
4
100
AcDbSymbolTableRecord
100
AcDbDimStyleTableRecord
  2
EZDXF
 70
0
  3

  4

 40
1.0
 41
0.175
 42
0.125
 43
3.75
 44
0.375
 45
0.0
 46
0.0
 47
0.0
 48
0.0
140
0.25
141
2.5
142
0.0
143
0.03937007874
144
100.0
145
0.0
146
0.5
147
0.1
148
0.0
 71
0
 72
0
 73
0
 74
0
 75
0
 76
0
 77
1
 78
12
 79
3
170
0
171
3
172
1
173
0
174
0
175
0
176
0
177
0
178
0
179
2
271
2
272
2
273
2
274
3
275
0
276
0
277
2
278
46
279
2
280
0
281
0
282
0
283
0
284
8
285
0
286
0
288
1
289
3
340
4C
342
74
371
-2
372
-2
  0
DIMSTYLE
105
7C
330
4
100
AcDbSymbolTableRecord
100
AcDbDimStyleTableRecord
  2
EZ_M_100_H25_CM
 70
0
  3

  4

 40
1.0
 41
0.25
 42
0.125
 43
3.75
 44
0.375
 45
0.0
 46
0.0
 47
0.0
 48
0.0
140
0.25
141
2.5
142
0.125
143
0.03937007874
144
100.0
145
0.0
146
0.5
147
0.1
148
0.0
 71
0
 72
0
 73
0
 74
0
 75
0
 76
0
 77
1
 78
12
 79
3
170
0
171
3
172
1
173
0
174
0
175
0
176
0
177
0
178
0
179
2
271
2
272
2
273
2
274
3
275
0
276
0
277
2
278
46
279
2
280
0
281
0
282
0
283
0
284
8
285
0
286
0
288
1
289
3
340
4C
371
-2
372
-2
  0
DIMSTYLE
105
7D
330
4
100
AcDbSymbolTableRecord
100
AcDbDimStyleTableRecord
  2
EZ_M_50_H25_CM
 70
0
  3

  4

 40
1.0
 41
0.125
 42
0.0625
 43
3.75
 44
0.1875
 45
0.0
 46
0.0
 47
0.0
 48
0.0
140
0.125
141
2.5
142
0.0625
143
0.03937007874
144
100.0
145
0.0
146
0.5
147
0.05
148
0.0
 71
0
 72
0
 73
0
 74
0
 75
0
 76
0
 77
1
 78
12
 79
3
170
0
171
3
172
1
173
0
174
0
175
0
176
0
177
0
178
0
179
2
271
2
272
2
273
2
274
3
275
0
276
0
277
2
278
46
279
2
280
0
281
0
282
0
283
0
284
8
285
0
286
0
288
1
289
3
340
4C
371
-2
372
-2
  0
DIMSTYLE
105
7E
330
4
100
AcDbSymbolTableRecord
100
AcDbDimStyleTableRecord
  2
EZ_M_25_H25_CM
 70
0
  3

  4

 40
1.0
 41
0.0625
 42
0.03125
 43
3.75
 44
0.09375
 45
0.0
 46
0.0
 47
0.0
 48
0.0
140
0.0625
141
2.5
142
0.03125
143
0.03937007874
144
100.0
145
0.0
146
0.5
147
0.025
148
0.0
 71
0
 72
0
 73
0
 74
0
 75
0
 76
0
 77
1
 78
12
 79
3
170
0
171
3
172
1
173
0
174
0
175
0
176
0
177
0
178
0
179
2
271
2
272
2
273
2
274
3
275
0
276
0
277
2
278
46
279
2
280
0
281
0
282
0
283
0
284
8
285
0
286
0
288
1
289
3
340
4C
371
-2
372
-2
  0
DIMSTYLE
105
7F
330
4
100
AcDbSymbolTableRecord
100
AcDbDimStyleTableRecord
  2
EZ_M_20_H25_CM
 70
0
  3

  4

 40
1.0
 41
0.05
 42
0.025
 43
3.75
 44
0.07500000000000001
 45
0.0
 46
0.0
 47
0.0
 48
0.0
140
0.05
141
2.5
142
0.025
143
0.03937007874
144
100.0
145
0.0
146
0.5
147
0.020000000000000004
148
0.0
 71
0
 72
0
 73
0
 74
0
 75
0
 76
0
 77
1
 78
12
 79
3
170
0
171
3
172
1
173
0
174
0
175
0
176
0
177
0
178
0
179
2
271
2
272
2
273
2
274
3
275
0
276
0
277
2
278
46
279
2
280
0
281
0
282
0
283
0
284
8
285
0
286
0
288
1
289
3
340
4C
371
-2
372
-2
  0
DIMSTYLE
105
80
330
4
100
AcDbSymbolTableRecord
100
AcDbDimStyleTableRecord
  2
EZ_M_10_H25_CM
 70
0
  3

  4

 40
1.0
 41
0.025
 42
0.0125
 43
3.75
 44
0.037500000000000006
 45
0.0
 46
0.0
 47
0.0
 48
0.0
140
0.025
141
2.5
142
0.0125
143
0.03937007874
144
100.0
145
0.0
146
0.5
147
0.010000000000000002
148
0.0
 71
0
 72
0
 73
0
 74
0
 75
0
 76
0
 77
1
 78
12
 79
3
170
0
171
3
172
1
173
0
174
0
175
0
176
0
177
0
178
0
179
2
271
2
272
2
273
2
274
3
275
0
276
0
277
2
278
46
279
2
280
0
281
0
282
0
283
0
284
8
285
0
286
0
288
1
289
3
340
4C
371
-2
372
-2
  0
DIMSTYLE
105
81
330
4
100
AcDbSymbolTableRecord
100
AcDbDimStyleTableRecord
  2
EZ_M_5_H25_CM
 70
0
  3

  4

 40
1.0
 41
0.0125
 42
0.00625
 43
3.75
 44
0.018750000000000003
 45
0.0
 46
0.0
 47
0.0
 48
0.0
140
0.0125
141
2.5
142
0.00625
143
0.03937007874
144
100.0
145
0.0
146
0.5
147
0.005000000000000001
148
0.0
 71
0
 72
0
 73
0
 74
0
 75
0
 76
0
 77
1
 78
12
 79
3
170
0
171
3
172
1
173
0
174
0
175
0
176
0
177
0
178
0
179
2
271
2
272
2
273
2
274
3
275
0
276
0
277
2
278
46
279
2
280
0
281
0
282
0
283
0
284
8
285
0
286
0
288
1
289
3
340
4C
371
-2
372
-2
  0
DIMSTYLE
105
82
330
4
100
AcDbSymbolTableRecord
100
AcDbDimStyleTableRecord
  2
EZ_M_1_H25_CM
 70
0
  3

  4

 40
1.0
 41
0.0025
 42
0.00125
 43
3.75
 44
0.00375
 45
0.0
 46
0.0
 47
0.0
 48
0.0
140
0.0025
141
2.5
142
0.00125
143
0.03937007874
144
100.0
145
0.0
146
0.5
147
0.001
148
0.0
 71
0
 72
0
 73
0
 74
0
 75
0
 76
0
 77
1
 78
12
 79
3
170
0
171
3
172
1
173
0
174
0
175
0
176
0
177
0
178
0
179
2
271
2
272
2
273
2
274
3
275
0
276
0
277
2
278
46
279
2
280
0
281
0
282
0
283
0
284
8
285
0
286
0
288
1
289
3
340
4C
371
-2
372
-2
  0
DIMSTYLE
105
83
330
4
100
AcDbSymbolTableRecord
100
AcDbDimStyleTableRecord
  2
EZ_RADIUS
 70
0
  3

  4

 40
1.0
 41
0.25
 42
0.125
 43
3.75
 44
0.375
 45
0.0
 46
0.0
 47
0.0
 48
0.0
140
0.25
141
0.0
142
0.0
143
0.03937007874
144
100.0
145
0.0
146
0.5
147
0.1
148
0.0
 71
0
 72
0
 73
0
 74
0
 75
0
 76
0
 77
1
 78
12
 79
3
170
0
171
3
172
0
173
0
174
0
175
0
176
0
177
0
178
0
179
2
271
2
272
2
273
2
274
3
275
0
276
0
277
2
278
46
279
1
280
0
281
0
282
0
283
0
284
8
285
0
286
0
288
1
289
3
340
4C
342
84
371
-2
372
-2
  0
DIMSTYLE
105
88
330
4
100
AcDbSymbolTableRecord
100
AcDbDimStyleTableRecord
  2
EZ_RADIUS_INSIDE
 70
0
  3

  4

 40
1.0
 41
0.25
 42
0.125
 43
3.75
 44
0.375
 45
0.0
 46
0.0
 47
0.0
 48
0.0
140
0.25
141
0.0
142
0.0
143
0.03937007874
144
100.0
145
0.0
146
0.5
147
0.1
148
0.0
 71
0
 72
0
 73
0
 74
0
 75
0
 76
0
 77
0
 78
12
 79
3
170
0
171
3
172
0
173
0
174
1
175
0
176
0
177
0
178
0
179
2
271
2
272
2
273
2
274
3
275
0
276
0
277
2
278
46
279
0
280
0
281
0
282
0
283
0
284
8
285
0
286
0
288
1
289
0
340
4C
342
84
371
-2
372
-2
  0
DIMSTYLE
105
89
330
4
100
AcDbSymbolTableRecord
100
AcDbDimStyleTableRecord
  2
EZ_CURVED
 70
0
  3

  4

 40
1.0
 41
0.25
 42
0.125
 43
3.75
 44
0.375
 45
0.0
 46
0.0
 47
0.0
 48
0.0
140
0.25
141
2.5
142
0.0
143
0.03937007874
144
100.0
145
0.0
146
0.5
147
0.1
148
0.0
 71
0
 72
0
 73
0
 74
0
 75
0
 76
0
 77
1
 78
12
 79
2
 90
2
170
0
171
3
172
1
173
0
174
0
175
0
176
0
177
0
178
0
179
2
271
2
272
2
273
2
274
3
275
0
276
0
277
2
278
46
279
2
280
0
281
0
282
0
283
0
284
8
285
0
286
0
288
1
289
3
340
4C
371
-2
372
-2
  0
ENDTAB
  0
TABLE
  2
BLOCK_RECORD
  5
9
330
0
100
AcDbSymbolTable
 70
5
  0
BLOCK_RECORD
  5
17
330
9
100
AcDbSymbolTableRecord
100
AcDbBlockTableRecord
  2
*Model_Space
340
1A
  0
BLOCK_RECORD
  5
1B
330
9
100
AcDbSymbolTableRecord
100
AcDbBlockTableRecord
  2
*Paper_Space
340
1E
  0
BLOCK_RECORD
  5
74
330
9
100
AcDbSymbolTableRecord
100
AcDbBlockTableRecord
  2
_ARCHTICK
340
0
  0
BLOCK_RECORD
  5
78
330
9
100
AcDbSymbolTableRecord
100
AcDbBlockTableRecord
  2
_CLOSEDFILLED
340
0
  0
BLOCK_RECORD
  5
84
330
9
100
AcDbSymbolTableRecord
100
AcDbBlockTableRecord
  2
_CLOSEDBLANK
340
0
  0
ENDTAB
  0
ENDSEC
  0
SECTION
  2
BLOCKS
  0
BLOCK
  5
18
330
17
100
AcDbEntity
  8
0
100
AcDbBlockBegin
  2
*Model_Space
 70
0
 10
0.0
 20
0.0
 30
0.0
  3
*Model_Space
  1

  0
ENDBLK
  5
19
330
17
100
AcDbEntity
  8
0
100
AcDbBlockEnd
  0
BLOCK
  5
1C
330
1B
100
AcDbEntity
  8
0
100
AcDbBlockBegin
  2
*Paper_Space
 70
0
 10
0.0
 20
0.0
 30
0.0
  3
*Paper_Space
  1

  0
ENDBLK
  5
1D
330
1B
100
AcDbEntity
  8
0
100
AcDbBlockEnd
  0
BLOCK
  5
75
330
74
100
AcDbEntity
  8
0
100
AcDbBlockBegin
  2
_ARCHTICK
 70
0
 10
0.0
 20
0.0
 30
0.0
  3
_ARCHTICK
  1

  0
LWPOLYLINE
  5
77
330
74
100
AcDbEntity
  8
0
  6
BYBLOCK
 62
0
100
AcDbPolyline
 90
2
 70
0
 43
0.15
 10
-0.5
 20
-0.5
 10
0.5
 20
0.5
  0
ENDBLK
  5
76
330
74
100
AcDbEntity
  8
0
100
AcDbBlockEnd
  0
BLOCK
  5
79
330
78
100
AcDbEntity
  8
0
100
AcDbBlockBegin
  2
_CLOSEDFILLED
 70
0
 10
0.0
 20
0.0
 30
0.0
  3
_CLOSEDFILLED
  1

  0
SOLID
  5
7B
330
78
100
AcDbEntity
  8
0
  6
BYBLOCK
 62
0
100
AcDbTrace
 10
-1.0
 20
0.16439898372402537
 30
0.0
 11
0.0
 21
0.0
 31
0.0
 12
-1.0
 22
-0.16439898372402537
 32
0.0
 13
-1.0
 23
-0.16439898372402537
 33
0.0
  0
ENDBLK
  5
7A
330
78
100
AcDbEntity
  8
0
100
AcDbBlockEnd
  0
BLOCK
  5
85
330
84
100
AcDbEntity
  8
0
100
AcDbBlockBegin
  2
_CLOSEDBLANK
 70
0
 10
0.0
 20
0.0
 30
0.0
  3
_CLOSEDBLANK
  1

  0
LWPOLYLINE
  5
87
330
84
100
AcDbEntity
  8
0
  6
BYBLOCK
 62
0
100
AcDbPolyline
 90
3
 70
1
 10
-1.0
 20
0.16439898372402537
 10
0.0
 20
0.0
 10
-1.0
 20
-0.16439898372402537
  0
ENDBLK
  5
86
330
84
100
AcDbEntity
  8
0
100
AcDbBlockEnd
  0
ENDSEC
  0
SECTION
  2
ENTITIES
  0
LINE
  5
8D
330
17
100
AcDbEntity
  8
PANEL-PROFILE
100
AcDbLine
 10
1015.9999999999998
 20
152.39999999999986
 30
0.0
 11
1016.0
 21
2286.0
 31
0.0
  0
LINE
  5
8E
330
17
100
AcDbEntity
  8
PANEL-PROFILE
100
AcDbLine
 10
889.0
 20
2413.0
 30
0.0
 11
330.2
 21
2413.0
 31
0.0
  0
LINE
  5
8F
330
17
100
AcDbEntity
  8
PANEL-PROFILE
100
AcDbLine
 10
203.2
 20
2286.0
 30
0.0
 11
203.19999999999987
 21
152.39999999999986
 31
0.0
  0
LINE
  5
90
330
17
100
AcDbEntity
  8
PANEL-PROFILE
100
AcDbLine
 10
330.1999999999999
 20
25.399999999999864
 30
0.0
 11
888.9999999999998
 21
25.399999999999864
 31
0.0
  0
ARC
  5
91
330
17
100
AcDbEntity
  8
PANEL-PROFILE
100
AcDbCircle
 10
889.0
 20
2286.0
 30
0.0
 40
127.0
100
AcDbArc
 50
360.0
 51
450.0
  0
ARC
  5
92
330
17
100
AcDbEntity
  8
PANEL-PROFILE
100
AcDbCircle
 10
330.2
 20
2286.0
 30
0.0
 40
127.0
100
AcDbArc
 50
90.0
 51
180.0
  0
ARC
  5
93
330
17
100
AcDbEntity
  8
PANEL-PROFILE
100
AcDbCircle
 10
330.1999999999999
 20
152.39999999999986
 30
0.0
 40
127.0
100
AcDbArc
 50
180.0
 51
270.0
  0
ARC
  5
94
330
17
100
AcDbEntity
  8
PANEL-PROFILE
100
AcDbCircle
 10
888.9999999999998
 20
152.39999999999986
 30
0.0
 40
127.0
100
AcDbArc
 50
270.0
 51
360.0
  0
CIRCLE
  5
95
330
17
100
AcDbEntity
  8
HOLES-9-32
100
AcDbCircle
 10
563.9643999999998
 20
569.1929999999999
 30
0.0
 40
3.57
  0
CIRCLE
  5
96
330
17
100
AcDbEntity
  8
HOLES-9-32
100
AcDbCircle
 10
701.0003999999999
 20
566.2027999999998
 30
0.0
 40
3.57
  0
CIRCLE
  5
97
330
17
100
AcDbEntity
  8
HOLES-9-32
100
AcDbCircle
 10
620.0097999999999
 20
669.8083999999998
 30
0.0
 40
3.57
  0
CIRCLE
  5
98
330
17
100
AcDbEntity
  8
HOLES-9-32
100
AcDbCircle
 10
635.9404999999999
 20
745.5630999999998
 30
0.0
 40
3.57
  0
CIRCLE
  5
99
330
17
100
AcDbEntity
  8
HOLES-9-32
100
AcDbCircle
 10
554.6156999999998
 20
835.8001999999998
 30
0.0
 40
3.57
  0
CIRCLE
  5
9A
330
17
100
AcDbEntity
  8
HOLES-9-32
100
AcDbCircle
 10
704.6766999999999
 20
835.8001999999998
 30
0.0
 40
3.57
  0
CIRCLE
  5
9B
330
17
100
AcDbEntity
  8
HOLES-9-32
100
AcDbCircle
 10
556.5094999999999
 20
900.4144999999999
 30
0.0
 40
3.57
  0
CIRCLE
  5
9C
330
17
100
AcDbEntity
  8
HOLES-9-32
100
AcDbCircle
 10
691.3082999999999
 20
928.5996999999998
 30
0.0
 40
3.57
  0
CIRCLE
  5
9D
330
17
100
AcDbEntity
  8
HOLES-9-32
100
AcDbCircle
 10
696.8783999999999
 20
1035.2132
 30
0.0
 40
3.57
  0
CIRCLE
  5
9E
330
17
100
AcDbEntity
  8
HOLES-9-32
100
AcDbCircle
 10
556.5094999999999
 20
1069.7483999999997
 30
0.0
 40
3.57
  0
CIRCLE
  5
9F
330
17
100
AcDbEntity
  8
HOLES-9-32
100
AcDbCircle
 10
570.2121999999999
 20
1197.8628999999999
 30
0.0
 40
3.57
  0
CIRCLE
  5
A0
330
17
100
AcDbEntity
  8
HOLES-9-32
100
AcDbCircle
 10
686.8521
 20
1195.6347999999998
 30
0.0
 40
3.57
  0
CIRCLE
  5
A1
330
17
100
AcDbEntity
  8
HOLES-9-32
100
AcDbCircle
 10
572.1061
 20
1298.9062
 30
0.0
 40
3.57
  0
CIRCLE
  5
A2
330
17
100
AcDbEntity
  8
HOLES-9-32
100
AcDbCircle
 10
688.7459999999999
 20
1296.6780999999999
 30
0.0
 40
3.57
  0
CIRCLE
  5
A3
330
17
100
AcDbEntity
  8
HOLES-9-32
100
AcDbCircle
 10
571.3263
 20
1381.6792999999998
 30
0.0
 40
3.57
  0
CIRCLE
  5
A4
330
17
100
AcDbEntity
  8
HOLES-9-32
100
AcDbCircle
 10
687.9662
 20
1379.4511999999997
 30
0.0
 40
3.57
  0
CIRCLE
  5
A5
330
17
100
AcDbEntity
  8
HOLES-9-32
100
AcDbCircle
 10
568.6765999999999
 20
1473.1304999999998
 30
0.0
 40
3.57
  0
CIRCLE
  5
A6
330
17
100
AcDbEntity
  8
HOLES-9-32
100
AcDbCircle
 10
685.3164999999999
 20
1470.9024
 30
0.0
 40
3.57
  0
CIRCLE
  5
A7
330
17
100
AcDbEntity
  8
HOLES-9-32
100
AcDbCircle
 10
569.0108999999999
 20
1557.7975
 30
0.0
 40
3.57
  0
CIRCLE
  5
A8
330
17
100
AcDbEntity
  8
HOLES-9-32
100
AcDbCircle
 10
685.6507999999999
 20
1555.5693999999999
 30
0.0
 40
3.57
  0
CIRCLE
  5
A9
330
17
100
AcDbEntity
  8
HOLES-9-32
100
AcDbCircle
 10
702.3613999999999
 20
1606.0353999999998
 30
0.0
 40
3.57
  0
CIRCLE
  5
AA
330
17
100
AcDbEntity
  8
HOLES-9-32
100
AcDbCircle
 10
571.2728999999999
 20
1674.8055999999997
 30
0.0
 40
3.57
  0
CIRCLE
  5
AB
330
17
100
AcDbEntity
  8
HOLES-9-32
100
AcDbCircle
 10
687.9128
 20
1672.5774999999999
 30
0.0
 40
3.57
  0
CIRCLE
  5
AC
330
17
100
AcDbEntity
  8
HOLES-9-32
100
AcDbCircle
 10
703.8096999999999
 20
1731.5876999999998
 30
0.0
 40
3.57
  0
CIRCLE
  5
AD
330
17
100
AcDbEntity
  8
HOLES-9-32
100
AcDbCircle
 10
564.5546999999999
 20
1809.2362999999998
 30
0.0
 40
3.57
  0
CIRCLE
  5
AE
330
17
100
AcDbEntity
  8
HOLES-9-32
100
AcDbCircle
 10
681.1945999999999
 20
1807.0081999999998
 30
0.0
 40
3.57
  0
CIRCLE
  5
AF
330
17
100
AcDbEntity
  8
HOLES-9-32
100
AcDbCircle
 10
565.3344999999999
 20
1869.7286
 30
0.0
 40
3.57
  0
CIRCLE
  5
B0
330
17
100
AcDbEntity
  8
HOLES-9-32
100
AcDbCircle
 10
678.9665
 20
1897.2453999999998
 30
0.0
 40
3.57
  0
CIRCLE
  5
B1
330
17
100
AcDbEntity
  8
HOLES-9-32
100
AcDbCircle
 10
569.7906999999999
 20
1967.7640999999999
 30
0.0
 40
3.57
  0
CIRCLE
  5
B2
330
17
100
AcDbEntity
  8
HOLES-9-32
100
AcDbCircle
 10
686.4305999999999
 20
1965.5359999999998
 30
0.0
 40
3.57
  0
CIRCLE
  5
B3
330
17
100
AcDbEntity
  8
HOLES-9-32
100
AcDbCircle
 10
565.6687999999999
 20
2069.1418
 30
0.0
 40
3.57
  0
CIRCLE
  5
B4
330
17
100
AcDbEntity
  8
HOLES-9-32
100
AcDbCircle
 10
682.3086999999999
 20
2066.9137
 30
0.0
 40
3.57
  0
CIRCLE
  5
B5
330
17
100
AcDbEntity
  8
HOLES-9-32
100
AcDbCircle
 10
564.889
 20
2157.1508999999996
 30
0.0
 40
3.57
  0
CIRCLE
  5
B6
330
17
100
AcDbEntity
  8
HOLES-9-32
100
AcDbCircle
 10
681.5289
 20
2154.9228
 30
0.0
 40
3.57
  0
CIRCLE
  5
B7
330
17
100
AcDbEntity
  8
HOLES-9-32
100
AcDbCircle
 10
631.3971
 20
2256.3004
 30
0.0
 40
3.57
  0
CIRCLE
  5
B8
330
17
100
AcDbEntity
  8
HOLES-9-32
100
AcDbCircle
 10
608.3337999999999
 20
255.35349999999983
 30
0.0
 40
3.57
  0
CIRCLE
  5
B9
330
17
100
AcDbEntity
  8
HOLES-9-32
100
AcDbCircle
 10
552.3645999999999
 20
196.05869999999982
 30
0.0
 40
3.57
  0
CIRCLE
  5
BA
330
17
100
AcDbEntity
  8
HOLES-9-32
100
AcDbCircle
 10
724.9736999999999
 20
253.1253999999998
 30
0.0
 40
3.57
  0
CIRCLE
  5
BB
330
17
100
AcDbEntity
  8
HOLES-9-32
100
AcDbCircle
 10
669.0044999999999
 20
193.83059999999978
 30
0.0
 40
3.57
  0
CIRCLE
  5
BC
330
17
100
AcDbEntity
  8
HOLES-9-32
100
AcDbCircle
 10
604.2118999999999
 20
356.73119999999983
 30
0.0
 40
3.57
  0
CIRCLE
  5
BD
330
17
100
AcDbEntity
  8
HOLES-9-32
100
AcDbCircle
 10
556.8207999999998
 20
418.53269999999986
 30
0.0
 40
3.57
  0
CIRCLE
  5
BE
330
17
100
AcDbEntity
  8
HOLES-9-32
100
AcDbCircle
 10
720.8517999999999
 20
354.5030999999998
 30
0.0
 40
3.57
  0
CIRCLE
  5
BF
330
17
100
AcDbEntity
  8
HOLES-9-32
100
AcDbCircle
 10
673.4606999999999
 20
416.3045999999998
 30
0.0
 40
3.57
  0
CIRCLE
  5
C0
330
17
100
AcDbEntity
  8
HOLES-9-32
100
AcDbCircle
 10
477.0142999999998
 20
258.46619999999984
 30
0.0
 40
3.57
  0
CIRCLE
  5
C1
330
17
100
AcDbEntity
  8
HOLES-9-32
100
AcDbCircle
 10
521.3862999999999
 20
274.3082999999998
 30
0.0
 40
3.57
  0
CIRCLE
  5
C2
330
17
100
AcDbEntity
  8
HOLES-9-32
100
AcDbCircle
 10
472.89239999999984
 20
359.84389999999985
 30
0.0
 40
3.57
  0
CIRCLE
  5
C3
330
17
100
AcDbEntity
  8
HOLES-9-32
100
AcDbCircle
 10
525.0483999999999
 20
333.1727999999998
 30
0.0
 40
3.57
  0
LWPOLYLINE
  5
C4
330
17
100
AcDbEntity
  8
REF-ARTWORK
100
AcDbPolyline
 90
77
 70
1
 10
589.3635999999998
 20
153.71659999999974
 10
588.3491999999999
 20
153.8367999999998
 10
587.4709999999999
 20
154.1034999999997
 10
586.7286999999999
 20
154.5034999999998
 10
586.1219999999998
 20
155.02329999999984
 10
585.6505999999998
 20
155.64959999999974
 10
585.3141999999998
 20
156.36919999999986
 10
585.1125999999998
 20
157.16869999999972
 10
585.0454999999998
 20
158.03469999999993
 10
585.0725999999999
 20
158.4654999999998
 10
585.1414999999998
 20
158.8884999999998
 10
585.2509999999999
 20
159.30099999999993
 10
585.3997999999998
 20
159.7000999999998
 10
585.5866999999998
 20
160.08269999999993
 10
585.8103999999998
 20
160.4460999999999
 10
586.0696999999999
 20
160.7873999999997
 10
586.3633999999998
 20
161.10359999999991
 10
588.7547999999998
 20
163.6139999999998
 10
595.1564999999998
 20
170.32969999999978
 10
604.4100999999998
 20
180.0270999999998
 10
615.3570999999998
 20
191.48289999999974
 10
626.8387999999999
 20
203.47339999999986
 10
637.6968999999998
 20
214.77539999999976
 10
646.7727999999998
 20
224.1651999999998
 10
652.9079999999999
 20
230.41949999999986
 10
655.7366999999998
 20
233.36649999999986
 10
658.4290999999998
 20
236.15459999999985
 10
660.9359999999998
 20
238.72919999999976
 10
663.2086999999999
 20
241.03559999999982
 10
665.1979999999999
 20
243.01919999999984
 10
666.8549999999999
 20
244.62559999999985
 10
668.1308999999999
 20
245.80009999999982
 10
668.9765999999998
 20
246.4880999999998
 10
671.0937999999999
 20
248.4685999999998
 10
677.0547999999999
 20
253.70789999999977
 10
686.2739999999999
 20
261.15219999999977
 10
698.1657999999999
 20
269.7480999999998
 10
712.1444999999999
 20
278.4419999999998
 10
727.6242999999998
 20
286.1802999999999
 10
744.0196999999998
 20
291.9093999999998
 10
760.7448999999999
 20
294.57579999999984
 10
762.2690999999999
 20
294.52369999999985
 10
763.8096999999998
 20
294.18759999999986
 10
765.2939999999999
 20
293.5030999999998
 10
766.6487999999998
 20
292.4056999999998
 10
767.8011999999999
 20
290.8309999999998
 10
768.6781999999998
 20
288.7144999999998
 10
769.2068999999999
 20
285.9917999999998
 10
769.3141999999998
 20
282.59829999999977
 10
769.0976999999998
 20
279.2711999999998
 10
768.6435999999999
 20
274.89449999999977
 10
767.9889999999998
 20
269.77189999999985
 10
767.1714999999998
 20
264.20719999999983
 10
766.2281999999998
 20
258.50409999999977
 10
765.1964999999998
 20
252.96619999999984
 10
764.1136999999999
 20
247.89719999999977
 10
763.0171999999999
 20
243.6008999999998
 10
759.7940999999998
 20
233.16529999999977
 10
754.8774999999998
 20
220.60689999999977
 10
747.7294999999999
 20
206.8943999999998
 10
737.8117999999998
 20
192.99619999999982
 10
724.5861999999998
 20
179.8811999999998
 10
707.5146999999998
 20
168.51779999999985
 10
686.0589999999999
 20
159.87459999999987
 10
659.6810999999998
 20
154.9201999999998
 10
653.0088999999998
 20
154.28019999999992
 10
645.5618999999998
 20
153.64649999999983
 10
637.4514999999999
 20
153.08309999999983
 10
628.7887999999998
 20
152.6538999999998
 10
619.6851999999999
 20
152.42279999999982
 10
610.2518999999999
 20
152.45379999999977
 10
600.6002999999998
 20
152.81089999999972
 10
590.8415999999999
 20
153.55779999999982
 10
590.6347999999998
 20
153.56849999999986
 10
590.3722999999999
 20
153.59969999999976
 10
589.9748999999998
 20
153.64959999999974
 10
589.3635999999998
 20
153.71659999999974
  0
LWPOLYLINE
  5
C5
330
17
100
AcDbEntity
  8
REF-ARTWORK
100
AcDbPolyline
 90
80
 70
1
 10
656.4981999999999
 20
541.7965999999998
 10
543.0475999999999
 20
541.7965999999998
 10
542.4684999999998
 20
541.8532999999998
 10
541.9319999999999
 20
542.0157999999998
 10
541.4487999999999
 20
542.2725999999998
 10
541.0294999999999
 20
542.6122999999998
 10
540.6848999999999
 20
543.0232999999998
 10
540.4254999999998
 20
543.4941999999999
 10
540.2620999999999
 20
544.0134999999998
 10
540.2051999999999
 20
544.5697999999999
 10
540.2051999999999
 20
588.5221999999998
 10
540.2302999999998
 20
588.9000999999998
 10
540.3031999999998
 20
589.2637999999998
 10
540.4202999999999
 20
589.6097999999998
 10
540.5782999999999
 20
589.9346999999998
 10
540.7734999999999
 20
590.2350999999999
 10
541.0023999999999
 20
590.5075999999998
 10
541.2614999999998
 20
590.7485999999998
 10
541.5472999999998
 20
590.9548999999998
 10
631.3389999999998
 20
643.5901999999999
 10
543.0475999999999
 20
643.5898999999998
 10
542.4684999999998
 20
643.6466999999998
 10
541.9319999999999
 20
643.8098999999999
 10
541.4487999999999
 20
644.0689999999998
 10
541.0294999999999
 20
644.4131999999998
 10
540.6848999999999
 20
644.8320999999999
 10
540.4254999999998
 20
645.3149999999998
 10
540.2620999999999
 20
645.8512999999998
 10
540.2051999999999
 20
646.4302999999999
 10
540.2051999999999
 20
697.3603999999998
 10
540.2620999999999
 20
697.9235999999999
 10
540.4254999999998
 20
698.4461999999999
 10
540.6848999999999
 20
698.9175999999998
 10
541.0294999999999
 20
699.3269999999998
 10
541.4487999999999
 20
699.6639999999999
 10
541.9319999999999
 20
699.9177999999998
 10
542.4684999999998
 20
700.0778999999998
 10
543.0475999999999
 20
700.1335999999998
 10
656.4981999999999
 20
700.1335999999998
 10
717.3153999999998
 20
700.1335999999998
 10
717.8710999999998
 20
700.0778999999998
 10
718.3898999999999
 20
699.9177999999998
 10
718.8604999999999
 20
699.6639999999999
 10
719.2712999999999
 20
699.3269999999998
 10
719.6108999999999
 20
698.9175999999998
 10
719.8675999999999
 20
698.4461999999999
 10
720.0300999999998
 20
697.9235999999999
 10
720.0867999999999
 20
697.3603999999998
 10
720.0867999999999
 20
653.2946999999998
 10
720.0870999999999
 20
653.2407999999998
 10
720.0631999999998
 20
652.8778999999998
 10
719.9928999999998
 20
652.5256999999998
 10
719.8784999999999
 20
652.1883999999998
 10
719.7222999999999
 20
651.8697999999998
 10
719.5265999999999
 20
651.5738999999999
 10
719.2934999999999
 20
651.3045999999998
 10
719.0252999999999
 20
651.0659999999998
 10
718.7243999999998
 20
650.8619999999999
 10
656.4981999999999
 20
614.4088999999998
 10
629.0685999999998
 20
598.3402999999998
 10
656.4981999999999
 20
598.3402999999998
 10
717.3153999999998
 20
598.3421999999998
 10
717.8710999999998
 20
598.2853999999999
 10
718.3898999999999
 20
598.1218999999999
 10
718.8604999999999
 20
597.8624999999998
 10
719.2712999999999
 20
597.5178999999998
 10
719.6108999999999
 20
597.0986999999998
 10
719.8675999999998
 20
596.6154999999998
 10
720.0300999999998
 20
596.0789999999998
 10
720.0867999999998
 20
595.4998999999998
 10
720.0867999999998
 20
544.5697999999999
 10
720.0287999999998
 20
544.0118999999999
 10
719.8663999999999
 20
543.4918999999999
 10
719.6105999999999
 20
543.0209999999998
 10
719.2722999999999
 20
542.6102999999998
 10
718.8625999999999
 20
542.2713999999999
 10
718.3925999999999
 20
542.0152999999998
 10
717.8731999999999
 20
541.8533999999999
 10
717.3153999999998
 20
541.7968999999998
 10
656.4981999999999
 20
541.7965999999998
  0
LWPOLYLINE
  5
C6
330
17
100
AcDbEntity
  8
REF-ARTWORK
100
AcDbPolyline
 90
68
 70
1
 10
493.11489999999986
 20
417.6863999999998
 10
493.1170999999999
 20
417.6863999999998
 10
492.1666999999999
 20
418.77769999999987
 10
491.3344999999999
 20
420.0488999999998
 10
490.7064999999999
 20
421.4881999999998
 10
490.3685999999999
 20
423.0840999999998
 10
490.4070999999999
 20
424.82479999999987
 10
490.90769999999986
 20
426.69859999999983
 10
491.95669999999984
 20
428.69389999999987
 10
493.6399999999999
 20
430.79899999999986
 10
497.3919999999999
 20
434.12379999999985
 10
502.6129999999999
 20
437.71159999999986
 10
508.9927999999999
 20
441.3672999999998
 10
516.2207999999998
 20
444.8960999999998
 10
523.9869999999999
 20
448.10299999999984
 10
531.9808999999999
 20
450.79319999999984
 10
539.8920999999999
 20
452.7715999999998
 10
547.4104999999998
 20
453.84339999999986
 10
549.3283999999999
 20
453.91169999999977
 10
551.2815999999999
 20
453.81269999999984
 10
553.2458999999999
 20
453.5261999999998
 10
555.1970999999999
 20
453.03179999999986
 10
557.1108999999999
 20
452.30949999999984
 10
558.9631999999999
 20
451.3389999999998
 10
560.7296999999999
 20
450.10009999999977
 10
562.3861999999999
 20
448.57249999999976
 10
681.7706999999998
 20
323.9858999999998
 10
682.4169999999998
 20
323.0473999999998
 10
682.7563999999999
 20
321.9436999999998
 10
682.7930999999999
 20
320.7607999999998
 10
682.5313999999998
 20
319.5845999999998
 10
681.9756999999998
 20
318.50109999999984
 10
681.1303999999999
 20
317.5963999999998
 10
679.9995999999999
 20
316.9564999999998
 10
678.5877999999998
 20
316.6673999999998
 10
677.4039999999999
 20
316.6166999999998
 10
676.1593999999999
 20
316.5831999999998
 10
674.8636999999999
 20
316.5646999999998
 10
673.5263999999999
 20
316.55909999999983
 10
672.1569999999998
 20
316.56399999999985
 10
670.7651999999998
 20
316.5774999999999
 10
669.3603999999998
 20
316.5971999999998
 10
667.9523999999999
 20
316.6208999999998
 10
663.9510999999999
 20
316.6230999999998
 10
660.0328999999998
 20
316.6707999999999
 10
656.3366999999998
 20
316.7497999999998
 10
653.0011999999998
 20
316.8459999999998
 10
650.1652999999999
 20
316.94539999999984
 10
647.9677999999999
 20
317.0337999999998
 10
646.5474999999999
 20
317.0971999999998
 10
646.0431999999998
 20
317.12149999999986
 10
637.2642999999998
 20
317.7837999999998
 10
628.1135999999999
 20
319.2675999999998
 10
618.8029999999999
 20
321.4564999999998
 10
609.5444999999999
 20
324.2345999999998
 10
600.5502999999999
 20
327.48569999999984
 10
592.0321999999999
 20
331.0935999999998
 10
584.2023999999999
 20
334.94209999999987
 10
577.2727999999998
 20
338.9151999999998
 10
572.7039999999998
 20
341.8738999999998
 10
568.0664999999999
 20
345.08389999999986
 10
563.3618999999999
 20
348.5596999999998
 10
558.5918999999999
 20
352.3159999999998
 10
553.7578999999998
 20
356.3672999999998
 10
548.8614999999999
 20
360.72839999999985
 10
543.9041999999998
 20
365.41369999999984
 10
538.8876999999999
 20
370.4378999999998
 10
493.11489999999986
 20
417.6863999999998
  0
LWPOLYLINE
  5
C7
330
17
100
AcDbEntity
  8
REF-ARTWORK
100
AcDbPolyline
 90
53
 70
1
 10
656.4982
 20
2123.9586999999997
 10
542.1838
 20
2123.9606999999996
 10
541.6196
 20
2124.0175
 10
541.0944999999999
 20
2124.1807
 10
540.6196
 20
2124.4395999999997
 10
540.2059999999999
 20
2124.7837999999997
 10
539.865
 20
2125.2023999999997
 10
539.6075999999999
 20
2125.6848999999997
 10
539.4449999999999
 20
2126.2205
 10
539.3883
 20
2126.7987999999996
 10
539.3886
 20
2228.7526
 10
540.8978999999999
 20
2241.6650999999997
 10
545.361
 20
2253.0564999999997
 10
552.6808
 20
2262.865
 10
562.7599
 20
2271.0287
 10
575.5011999999999
 20
2277.4858999999997
 10
590.8075
 20
2282.1746999999996
 10
608.5815
 20
2285.0333
 10
628.7261
 20
2285.9999
 10
632.4784
 20
2285.9703
 10
636.1498
 20
2285.8827
 10
639.7407999999999
 20
2285.7385
 10
643.2515
 20
2285.5396
 10
646.6822999999999
 20
2285.2873999999997
 10
650.0335
 20
2284.9836999999998
 10
653.3053
 20
2284.63
 10
656.4982
 20
2284.2279
 10
664.1794
 20
2282.9272
 10
671.3696
 20
2281.2761
 10
678.0656
 20
2279.2757
 10
684.2642999999999
 20
2276.9269999999997
 10
689.9623
 20
2274.2311
 10
695.1564999999999
 20
2271.189
 10
699.8435999999999
 20
2267.8017999999997
 10
704.0204
 20
2264.0703999999996
 10
707.5799
 20
2260.0941
 10
710.6727
 20
2255.7870999999996
 10
713.2963
 20
2251.153
 10
715.4483
 20
2246.1955
 10
717.1263
 20
2240.9183
 10
718.3279
 20
2235.3251
 10
719.0507
 20
2229.4197
 10
719.2921
 20
2223.2057
 10
719.2923999999999
 20
2126.8010999999997
 10
719.2355
 20
2126.2219999999998
 10
719.0721
 20
2125.6854999999996
 10
718.8127999999999
 20
2125.2023
 10
718.4682
 20
2124.7830999999996
 10
718.0491999999999
 20
2124.4384
 10
717.5663
 20
2124.179
 10
717.0304
 20
2124.0155999999997
 10
716.452
 20
2123.9586999999997
 10
656.4982
 20
2123.9586999999997
  0
LWPOLYLINE
  5
C8
330
17
100
AcDbEntity
  8
REF-ARTWORK
100
AcDbPolyline
 90
45
 70
1
 10
656.4982
 20
2180.5044
 10
688.11
 20
2180.5044
 10
688.11
 20
2189.4813999999997
 10
687.9693
 20
2192.9972
 10
687.5471
 20
2196.3514999999998
 10
686.8430999999999
 20
2199.5423
 10
685.8571
 20
2202.5678
 10
684.5889
 20
2205.426
 10
683.0382
 20
2208.115
 10
681.2048
 20
2210.633
 10
679.0884
 20
2212.978
 10
676.4241
 20
2215.4019
 10
673.7986
 20
2217.3797999999997
 10
671.1696
 20
2218.9995
 10
668.4952
 20
2220.3487999999998
 10
665.7329
 20
2221.5153999999998
 10
662.8408
 20
2222.5870999999997
 10
659.7765999999999
 20
2223.6517
 10
656.4982
 20
2224.7969999999996
 10
652.7732
 20
2225.7095
 10
648.843
 20
2226.5018999999998
 10
644.7094
 20
2227.1737999999996
 10
640.3738
 20
2227.7246999999998
 10
635.8378
 20
2228.1539999999995
 10
631.1032
 20
2228.4613
 10
626.1716
 20
2228.6459999999997
 10
621.0444
 20
2228.7077
 10
611.005
 20
2228.4267
 10
602.3929999999999
 20
2227.6403999999998
 10
595.0998
 20
2226.4338
 10
589.0168
 20
2224.8918999999996
 10
584.0355
 20
2223.0995999999996
 10
580.0471
 20
2221.1421
 10
576.9431
 20
2219.1041999999998
 10
574.6148
 20
2217.0710999999997
 10
573.6689
 20
2216.0726999999997
 10
572.8439999999999
 20
2215.0405
 10
572.1415999999999
 20
2213.9789
 10
571.5634
 20
2212.8925
 10
571.1109
 20
2211.7859
 10
570.7857
 20
2210.6636
 10
570.5894
 20
2209.5301999999997
 10
570.5236
 20
2208.3900999999996
 10
570.5236
 20
2180.5044
 10
656.4982
 20
2180.5044
  0
LWPOLYLINE
  5
C9
330
17
100
AcDbEntity
  8
REF-ARTWORK
100
AcDbPolyline
 90
82
 70
1
 10
656.4961999999999
 20
1940.2151999999999
 10
542.1837999999999
 20
1940.2151999999999
 10
541.6194999999999
 20
1940.2718999999997
 10
541.0940999999999
 20
1940.4344999999998
 10
540.6188999999999
 20
1940.6918999999998
 10
540.2049
 20
1941.033
 10
539.8634
 20
1941.4464999999998
 10
539.6057
 20
1941.9213999999997
 10
539.4427999999999
 20
1942.4465999999998
 10
539.386
 20
1943.0107999999998
 10
539.3864
 20
1987.0095999999999
 10
539.4105999999999
 20
1987.3642999999997
 10
539.4816
 20
1987.7115
 10
539.5967999999999
 20
1988.0476999999998
 10
539.7538
 20
1988.3693999999998
 10
539.9502
 20
1988.6729999999998
 10
540.1835
 20
1988.955
 10
540.4511
 20
1989.2119999999998
 10
540.7506999999999
 20
1989.4404
 10
630.4756
 20
2042.0756999999999
 10
542.1838
 20
2042.0753999999997
 10
541.6195
 20
2042.1321999999998
 10
541.0941
 20
2042.2949999999998
 10
540.6188999999999
 20
2042.5526
 10
540.2049
 20
2042.8938999999998
 10
539.8634
 20
2043.3075
 10
539.6057
 20
2043.7823999999998
 10
539.4427999999999
 20
2044.3073
 10
539.386
 20
2044.8709
 10
539.3864
 20
2095.8458
 10
539.4431999999999
 20
2096.4002
 10
539.606
 20
2096.9145
 10
539.8637
 20
2097.3783
 10
540.2050999999999
 20
2097.7810999999997
 10
540.6191
 20
2098.1126
 10
541.0944
 20
2098.3623
 10
541.6197999999999
 20
2098.5198
 10
542.1841999999999
 20
2098.5746
 10
656.4982
 20
2098.5746
 10
716.452
 20
2098.5746
 10
717.0304
 20
2098.5198
 10
717.5663
 20
2098.3623
 10
718.0491999999999
 20
2098.1126
 10
718.4682
 20
2097.7810999999997
 10
718.8127999999999
 20
2097.3783
 10
719.0721
 20
2096.9145
 10
719.2355
 20
2096.4002
 10
719.2923999999999
 20
2095.8458
 10
719.2921
 20
2051.7334
 10
719.2687999999999
 20
2051.3559999999998
 10
719.1997
 20
2050.9923
 10
719.0858
 20
2050.6454999999996
 10
718.9282999999999
 20
2050.319
 10
718.7280999999999
 20
2050.0159999999996
 10
718.4865
 20
2049.7397
 10
718.2044999999999
 20
2049.4934
 10
717.8832
 20
2049.2803
 10
656.4982
 20
2013.3482
 10
656.4982
 20
2013.3484999999998
 10
628.2719999999999
 20
1996.7812
 10
656.4982
 20
1996.8257999999998
 10
716.452
 20
1996.9393999999998
 10
717.0304
 20
1996.8757999999998
 10
717.5663
 20
1996.6943999999999
 10
718.0491999999999
 20
1996.4096999999997
 10
718.4681999999999
 20
1996.0359999999998
 10
718.8127999999999
 20
1995.5876999999998
 10
719.0721
 20
1995.0791999999997
 10
719.2355
 20
1994.5247999999997
 10
719.2923999999999
 20
1993.9388999999996
 10
719.2920999999999
 20
1943.0107999999998
 10
719.2340999999999
 20
1942.4467
 10
719.0700999999999
 20
1941.9213
 10
718.8113
 20
1941.446
 10
718.4689
 20
1941.0319
 10
718.0541
 20
1940.6902999999998
 10
717.5781999999999
 20
1940.4323999999997
 10
717.0525
 20
1940.2693999999997
 10
716.4882
 20
1940.2125999999998
 10
716.4517
 20
1940.2129999999997
 10
656.4961999999999
 20
1940.2129999999997
 10
656.4961999999999
 20
1940.2151999999999
  0
LWPOLYLINE
  5
CA
330
17
100
AcDbEntity
  8
REF-ARTWORK
100
AcDbPolyline
 90
75
 70
1
 10
656.4982
 20
1913.8743
 10
715.7706999999999
 20
1929.6001999999999
 10
716.0926999999999
 20
1929.6677999999997
 10
716.4119
 20
1929.6987999999997
 10
716.7275999999999
 20
1929.6927999999998
 10
717.0389
 20
1929.6497
 10
717.3449999999999
 20
1929.5692
 10
717.6451
 20
1929.4510999999998
 10
717.9382999999999
 20
1929.2952999999998
 10
718.2237
 20
1929.1014999999998
 10
718.4658
 20
1928.8781999999997
 10
718.6789
 20
1928.6353
 10
718.862
 20
1928.3746999999998
 10
719.0141
 20
1928.0983999999999
 10
719.1342
 20
1927.8082
 10
719.2212999999999
 20
1927.5060999999998
 10
719.2742
 20
1927.1937999999998
 10
719.2920999999999
 20
1926.8734
 10
719.2918
 20
1878.216
 10
719.2491
 20
1877.7386999999999
 10
719.1293
 20
1877.2850999999998
 10
718.9386
 20
1876.8628999999999
 10
718.683
 20
1876.4795999999997
 10
718.3684999999999
 20
1876.1429999999998
 10
718.0012999999999
 20
1875.8604999999998
 10
717.5873999999999
 20
1875.6399999999999
 10
717.1328
 20
1875.4888999999998
 10
682.3380999999999
 20
1867.3755999999998
 10
682.3384
 20
1818.6490999999999
 10
717.1331
 20
1810.4913999999999
 10
717.5849999999999
 20
1810.3423999999998
 10
717.9980999999999
 20
1810.1225999999997
 10
718.3657999999999
 20
1809.8401
 10
718.6815999999999
 20
1809.5025999999998
 10
718.9387999999999
 20
1809.1182
 10
719.1306
 20
1808.6947999999998
 10
719.2506
 20
1808.2403
 10
719.2920999999999
 20
1807.7625999999998
 10
719.2920999999999
 20
1759.1048999999998
 10
719.2741
 20
1758.7846999999997
 10
719.2208999999999
 20
1758.4726999999998
 10
719.1335999999999
 20
1758.1708999999998
 10
719.0133
 20
1757.8810999999998
 10
718.8611
 20
1757.6052
 10
718.6779999999999
 20
1757.3448999999998
 10
718.4652
 20
1757.1022999999998
 10
718.2236999999999
 20
1756.879
 10
717.9581
 20
1756.7063999999998
 10
717.6742999999999
 20
1756.5647
 10
717.3753999999999
 20
1756.4548999999997
 10
717.0647999999999
 20
1756.3781999999997
 10
716.7455
 20
1756.3355999999999
 10
716.4209
 20
1756.3280999999997
 10
716.0943
 20
1756.3568999999998
 10
715.7687
 20
1756.4229999999998
 10
656.4982
 20
1771.9905999999999
 10
541.4562999999999
 20
1802.1953999999998
 10
541.0217
 20
1802.3590999999997
 10
540.6251
 20
1802.5894999999998
 10
540.2727
 20
1802.8785999999998
 10
539.9707
 20
1803.2181999999998
 10
539.7251
 20
1803.6003999999998
 10
539.5420999999999
 20
1804.0171999999998
 10
539.4277999999999
 20
1804.4604999999997
 10
539.3883
 20
1804.9222
 10
539.3883
 20
1880.6709999999998
 10
539.4277999999999
 20
1881.1479999999997
 10
539.5420999999999
 20
1881.6016999999997
 10
539.7251
 20
1882.0238999999997
 10
539.9707
 20
1882.4064999999998
 10
540.2727
 20
1882.7410999999997
 10
540.6251
 20
1883.0195999999999
 10
541.0217
 20
1883.2338
 10
541.4562999999999
 20
1883.3754999999999
 10
656.4982
 20
1913.8743
  0
LWPOLYLINE
  5
CB
330
17
100
AcDbEntity
  8
REF-ARTWORK
100
AcDbPolyline
 90
4
 70
1
 10
647.4076
 20
1826.8313999999998
 10
647.4076
 20
1859.1933
 10
578.2964
 20
1843.0113999999999
 10
647.4076
 20
1826.8313999999998
  0
LWPOLYLINE
  5
CC
330
17
100
AcDbEntity
  8
REF-ARTWORK
100
AcDbPolyline
 90
58
 70
1
 10
656.4961999999999
 20
1647.3129999999999
 10
542.1837999999999
 20
1647.3129999999999
 10
541.6194999999999
 20
1647.3696999999997
 10
541.0940999999999
 20
1647.5321999999999
 10
540.6188999999999
 20
1647.7889999999998
 10
540.2049
 20
1648.1286999999998
 10
539.8634
 20
1648.5396999999998
 10
539.6057
 20
1649.0106999999998
 10
539.4427999999999
 20
1649.5299999999997
 10
539.386
 20
1650.0863
 10
539.3864
 20
1701.0854
 10
539.4431999999999
 20
1701.6410999999998
 10
539.606
 20
1702.1598999999999
 10
539.8636999999999
 20
1702.6304999999998
 10
540.2050999999999
 20
1703.0412999999999
 10
540.6190999999999
 20
1703.3808999999999
 10
541.0944
 20
1703.6375999999998
 10
541.6197999999999
 20
1703.8001
 10
542.1841999999999
 20
1703.8567999999998
 10
656.4982
 20
1703.8567999999998
 10
686.3604999999999
 20
1703.8567999999998
 10
686.3604999999999
 20
1747.4701999999997
 10
686.3814
 20
1747.7852999999998
 10
686.4423999999999
 20
1748.0982
 10
686.5405999999999
 20
1748.4042
 10
686.6733999999999
 20
1748.6989999999998
 10
686.8380999999999
 20
1748.9778999999999
 10
687.0318
 20
1749.2362999999998
 10
687.2519
 20
1749.4697999999999
 10
687.4956999999999
 20
1749.6737999999998
 10
687.7591
 20
1749.8685999999998
 10
688.0356999999999
 20
1750.0269999999998
 10
688.3239
 20
1750.1486
 10
688.6221999999999
 20
1750.2332999999999
 10
688.9288999999999
 20
1750.2807999999998
 10
689.2425
 20
1750.2906999999998
 10
689.5613
 20
1750.2626999999998
 10
689.8838999999999
 20
1750.1967
 10
717.2017999999999
 20
1742.9694999999997
 10
717.6501999999999
 20
1742.8278999999998
 10
718.0551999999999
 20
1742.6142999999997
 10
718.4119999999999
 20
1742.3374
 10
718.7153
 20
1742.0059999999999
 10
718.9599999999999
 20
1741.6286999999998
 10
719.1410999999999
 20
1741.2143999999998
 10
719.2534999999999
 20
1740.7716999999998
 10
719.2920999999999
 20
1740.3094999999998
 10
719.2920999999999
 20
1650.0863
 10
719.2352999999999
 20
1649.5299999999997
 10
719.0717999999999
 20
1649.0106999999998
 10
718.8125
 20
1648.5396999999998
 10
718.468
 20
1648.1286999999998
 10
718.049
 20
1647.7889999999998
 10
717.5662
 20
1647.5321999999999
 10
717.0301999999999
 20
1647.3696999999997
 10
716.4517
 20
1647.3129999999999
 10
656.4982
 20
1647.3129999999999
 10
656.4961999999999
 20
1647.3129999999999
  0
LWPOLYLINE
  5
CD
330
17
100
AcDbEntity
  8
REF-ARTWORK
100
AcDbPolyline
 90
52
 70
1
 10
656.4961999999999
 20
1527.1580999999999
 10
542.1837999999999
 20
1527.1580999999999
 10
541.6194999999999
 20
1527.2147999999997
 10
541.0940999999999
 20
1527.3773999999999
 10
540.6188999999999
 20
1527.6346999999998
 10
540.2049
 20
1527.9755999999998
 10
539.8634
 20
1528.3889
 10
539.6057
 20
1528.8635
 10
539.4427999999999
 20
1529.3881
 10
539.386
 20
1529.9516999999998
 10
539.3864
 20
1580.8839999999998
 10
539.4431999999999
 20
1581.4622999999997
 10
539.606
 20
1581.9979999999998
 10
539.8636999999999
 20
1582.4805
 10
540.2050999999999
 20
1582.8990999999999
 10
540.6190999999999
 20
1583.2432999999999
 10
541.0944
 20
1583.5022
 10
541.6197999999999
 20
1583.6653999999999
 10
542.1841999999999
 20
1583.7221999999997
 10
656.4981999999999
 20
1583.7221999999997
 10
656.4981999999999
 20
1583.7241
 10
686.3604999999999
 20
1583.7241
 10
686.3604999999999
 20
1628.1770999999999
 10
686.4173999999999
 20
1628.7333999999998
 10
686.5808
 20
1629.2526999999998
 10
686.8402
 20
1629.7235999999998
 10
687.1849
 20
1630.1345999999999
 10
687.6040999999999
 20
1630.4742999999999
 10
688.0872999999999
 20
1630.7310999999997
 10
688.6238
 20
1630.8935999999999
 10
689.2029
 20
1630.9502999999997
 10
716.4500999999999
 20
1630.9502999999997
 10
717.0292
 20
1630.8935999999999
 10
717.5656999999999
 20
1630.7310999999997
 10
718.0488999999999
 20
1630.4742999999999
 10
718.4680999999999
 20
1630.1345999999999
 10
718.8127
 20
1629.7235999999998
 10
719.0721
 20
1629.2526999999998
 10
719.2356
 20
1628.7333999999998
 10
719.2923999999999
 20
1628.1770999999999
 10
719.2920999999999
 20
1529.9535999999998
 10
719.2340999999999
 20
1529.3893999999998
 10
719.0700999999999
 20
1528.8639999999998
 10
718.8113
 20
1528.3886999999997
 10
718.4689
 20
1527.9746999999998
 10
718.0541
 20
1527.6330999999998
 10
717.5781999999999
 20
1527.3752
 10
717.0524999999999
 20
1527.2122999999997
 10
716.4881999999999
 20
1527.1554999999998
 10
716.4517
 20
1527.1557999999998
 10
656.4961999999999
 20
1527.1562
 10
656.4961999999999
 20
1527.1580999999999
  0
LWPOLYLINE
  5
CE
330
17
100
AcDbEntity
  8
REF-ARTWORK
100
AcDbPolyline
 90
51
 70
1
 10
656.4981999999999
 20
1508.0911999999998
 10
671.7507999999999
 20
1506.1385999999998
 10
684.7570999999999
 20
1503.158
 10
695.5825
 20
1499.1160999999997
 10
704.2927999999999
 20
1493.9793999999997
 10
710.9532999999999
 20
1487.7145999999998
 10
715.6297
 20
1480.2884
 10
718.3874
 20
1471.6671999999999
 10
719.2920999999999
 20
1461.8177999999998
 10
719.2920999999999
 20
1390.1156999999998
 10
718.3874
 20
1380.2587999999998
 10
715.6297
 20
1371.6319999999998
 10
710.9532999999999
 20
1364.2015
 10
704.2927999999999
 20
1357.9339999999997
 10
695.5825
 20
1352.7957999999999
 10
684.7570999999999
 20
1348.7533999999998
 10
671.7507999999999
 20
1345.7732999999998
 10
656.4981999999999
 20
1343.8219
 10
653.3902999999999
 20
1343.5665
 10
650.2026999999999
 20
1343.3470999999997
 10
646.9341999999999
 20
1343.1630999999998
 10
643.5836999999999
 20
1343.014
 10
640.1501999999999
 20
1342.8990999999999
 10
636.6324999999999
 20
1342.8177999999998
 10
633.0296
 20
1342.7694999999999
 10
629.3403999999999
 20
1342.7534999999998
 10
607.3616
 20
1343.4256999999998
 10
588.6693999999999
 20
1345.4811999999997
 10
573.1539999999999
 20
1348.9779999999998
 10
560.7058
 20
1353.9742999999999
 10
551.2149
 20
1360.5279999999998
 10
544.5715999999999
 20
1368.6974999999998
 10
540.6659999999999
 20
1378.5406999999998
 10
539.3885999999999
 20
1390.1156999999998
 10
539.3883
 20
1461.8177999999998
 10
540.6656999999999
 20
1473.3720999999998
 10
544.5711999999999
 20
1483.2034999999998
 10
551.2144999999999
 20
1491.3682
 10
560.7053999999999
 20
1497.9222999999997
 10
573.1537
 20
1502.9220999999998
 10
588.6689999999999
 20
1506.4237999999998
 10
607.3611999999999
 20
1508.4835999999998
 10
629.3399999999999
 20
1509.1576999999997
 10
633.0292
 20
1509.1417
 10
636.6321999999999
 20
1509.0933999999997
 10
640.1498999999999
 20
1509.0122
 10
643.5835
 20
1508.8973999999998
 10
646.934
 20
1508.7484999999997
 10
650.2026
 20
1508.5648999999999
 10
653.3902999999999
 20
1508.3459999999998
 10
656.4981999999999
 20
1508.0911999999998
  0
LWPOLYLINE
  5
CF
330
17
100
AcDbEntity
  8
REF-ARTWORK
100
AcDbPolyline
 90
76
 70
1
 10
656.4981999999999
 20
1450.6372999999999
 10
653.4160999999999
 20
1450.9167999999997
 10
650.1851999999999
 20
1451.158
 10
646.8041
 20
1451.3611999999998
 10
643.2711999999999
 20
1451.5267999999999
 10
639.5846999999999
 20
1451.6550999999997
 10
635.7431999999999
 20
1451.7462999999998
 10
631.7450999999999
 20
1451.8007999999998
 10
627.5886999999999
 20
1451.8188999999998
 10
616.4035999999999
 20
1451.6744999999999
 10
606.429
 20
1451.2391999999998
 10
597.6526999999999
 20
1450.5097999999998
 10
590.0623999999999
 20
1449.4832999999999
 10
583.6460999999999
 20
1448.1562999999999
 10
578.3915
 20
1446.5257
 10
574.2864
 20
1444.5884999999998
 10
571.3186
 20
1442.3412999999998
 10
570.7193
 20
1441.6717999999998
 10
570.1987999999999
 20
1440.9898999999998
 10
569.7574999999999
 20
1440.292
 10
569.3956999999999
 20
1439.5741999999998
 10
569.1136999999999
 20
1438.8329999999999
 10
568.9119
 20
1438.0645999999997
 10
568.7905
 20
1437.2653999999998
 10
568.7499999999999
 20
1436.4316999999999
 10
568.7499999999999
 20
1415.4326999999998
 10
569.6543999999999
 20
1411.8029999999999
 10
572.3762999999999
 20
1408.6664999999998
 10
576.9283999999999
 20
1406.0203999999999
 10
583.3235
 20
1403.8618
 10
591.5745
 20
1402.1879
 10
601.6940999999999
 20
1400.9958
 10
613.6951999999999
 20
1400.2825999999998
 10
627.5905999999999
 20
1400.0454999999997
 10
631.7459999999999
 20
1400.0638
 10
635.7434
 20
1400.1194999999998
 10
639.5844
 20
1400.2134999999998
 10
643.2705
 20
1400.3469999999998
 10
646.8032999999999
 20
1400.5209999999997
 10
650.1845
 20
1400.7363999999998
 10
653.4155999999999
 20
1400.9943999999998
 10
656.4981999999999
 20
1401.2959999999998
 10
656.4981999999999
 20
1401.2961999999998
 10
661.5756999999999
 20
1401.8863999999999
 10
666.1736
 20
1402.6006999999997
 10
670.2937999999999
 20
1403.4397
 10
673.9381999999999
 20
1404.4037999999998
 10
677.1084999999999
 20
1405.4936999999998
 10
679.8066999999999
 20
1406.7097999999999
 10
682.0345
 20
1408.0528
 10
683.7937999999999
 20
1409.5230999999999
 10
684.4128999999999
 20
1410.1884999999997
 10
684.9424999999999
 20
1410.8720999999998
 10
685.3847
 20
1411.5751999999998
 10
685.7416999999999
 20
1412.2992
 10
686.0156
 20
1413.0456
 10
686.2086999999999
 20
1413.8156999999999
 10
686.3228999999999
 20
1414.6109
 10
686.3604999999999
 20
1415.4326999999998
 10
686.3604999999999
 20
1436.4316999999999
 10
686.3228999999999
 20
1437.2653999999998
 10
686.2086999999999
 20
1438.0643999999998
 10
686.0156
 20
1438.8324999999998
 10
685.7416999999999
 20
1439.5734999999997
 10
685.3847
 20
1440.2911
 10
684.9424999999999
 20
1440.9890999999998
 10
684.4128999999999
 20
1441.6712999999997
 10
683.7937999999999
 20
1442.3412999999998
 10
682.0343999999999
 20
1443.8135999999997
 10
679.8064999999999
 20
1445.1618999999998
 10
677.1082999999999
 20
1446.3860999999997
 10
673.9379999999999
 20
1447.4859
 10
670.2937
 20
1448.4611999999997
 10
666.1736
 20
1449.3115999999998
 10
661.5756999999999
 20
1450.0370999999998
 10
656.4981999999999
 20
1450.6372999999999
  0
LWPOLYLINE
  5
D0
330
17
100
AcDbEntity
  8
REF-ARTWORK
100
AcDbPolyline
 90
84
 70
1
 10
656.4961999999999
 20
1221.8687999999997
 10
716.4516999999998
 20
1221.8691
 10
717.0301999999999
 20
1221.8122999999998
 10
717.5661999999999
 20
1221.6490999999999
 10
718.0489999999999
 20
1221.3899999999999
 10
718.4679999999998
 20
1221.0457999999999
 10
718.8124999999999
 20
1220.6268999999998
 10
719.0717999999999
 20
1220.1439999999998
 10
719.2352999999999
 20
1219.6076999999998
 10
719.2920999999999
 20
1219.0286999999998
 10
719.2923999999999
 20
1168.0986999999998
 10
719.2354999999999
 20
1167.5388999999998
 10
719.0720999999999
 20
1167.0113999999999
 10
718.8127999999999
 20
1166.5294
 10
718.4681999999999
 20
1166.1057999999998
 10
718.0491999999999
 20
1165.7536999999998
 10
717.5663
 20
1165.4859999999999
 10
717.0303999999999
 20
1165.3158999999998
 10
716.4519999999999
 20
1165.2562999999998
 10
656.4981999999999
 20
1165.2562999999998
 10
656.4981999999999
 20
1165.2582999999997
 10
542.1841999999999
 20
1165.2582999999997
 10
541.6197999999999
 20
1165.3178999999998
 10
541.0944
 20
1165.4879999999998
 10
540.6190999999999
 20
1165.7555999999997
 10
540.2050999999999
 20
1166.1074999999998
 10
539.8636999999999
 20
1166.5308999999997
 10
539.6059999999999
 20
1167.0124999999998
 10
539.4431999999999
 20
1167.5394999999999
 10
539.3863999999999
 20
1168.0986999999998
 10
539.386
 20
1219.0306999999998
 10
539.4427999999999
 20
1219.609
 10
539.6057
 20
1220.1445999999999
 10
539.8634
 20
1220.6271
 10
540.2049
 20
1221.0457
 10
540.6188999999999
 20
1221.3899
 10
541.0940999999999
 20
1221.6487999999997
 10
541.6194999999999
 20
1221.812
 10
542.1837999999999
 20
1221.8687999999997
 10
610.8834999999999
 20
1221.8687999999997
 10
610.8838999999999
 20
1268.3248999999998
 10
542.1822
 20
1268.3248999999998
 10
541.6177999999999
 20
1268.3817
 10
541.0923999999999
 20
1268.5448999999999
 10
540.6170999999999
 20
1268.8038
 10
540.2031999999999
 20
1269.148
 10
539.8616999999999
 20
1269.5665999999999
 10
539.6039999999999
 20
1270.0490999999997
 10
539.4411999999999
 20
1270.5847999999999
 10
539.3843999999999
 20
1271.1630999999998
 10
539.3840999999999
 20
1322.0953999999997
 10
539.4408999999999
 20
1322.6516
 10
539.6037999999999
 20
1323.1707
 10
539.8614999999999
 20
1323.6412999999998
 10
540.2029999999999
 20
1324.052
 10
540.617
 20
1324.3912999999998
 10
541.0921999999999
 20
1324.6477999999997
 10
541.6175999999999
 20
1324.8101
 10
542.1818999999999
 20
1324.8666999999998
 10
656.4961999999999
 20
1324.8666999999998
 10
656.5001
 20
1324.8666999999998
 10
716.4516999999998
 20
1324.8666999999998
 10
717.0301999999999
 20
1324.8099999999997
 10
717.5661999999999
 20
1324.6474999999998
 10
718.0489999999999
 20
1324.3908
 10
718.4679999999998
 20
1324.0512999999999
 10
718.8124999999999
 20
1323.6404999999997
 10
719.0717999999999
 20
1323.1698999999999
 10
719.2352999999999
 20
1322.6510999999998
 10
719.2920999999999
 20
1322.0953999999997
 10
719.2923999999999
 20
1271.1630999999998
 10
719.2354999999999
 20
1270.5847999999999
 10
719.0720999999999
 20
1270.0490999999997
 10
718.8127999999999
 20
1269.5665999999999
 10
718.4681999999999
 20
1269.148
 10
718.0491999999999
 20
1268.8038
 10
717.5663
 20
1268.5448999999999
 10
717.0303999999999
 20
1268.3817
 10
716.4519999999999
 20
1268.3248999999998
 10
656.5000999999999
 20
1268.3248999999998
 10
656.5000999999999
 20
1268.3226999999997
 10
645.8163
 20
1268.3226999999997
 10
645.8163
 20
1221.8687999999997
 10
656.4961999999999
 20
1221.8687999999997
  0
LWPOLYLINE
  5
D1
330
17
100
AcDbEntity
  8
REF-ARTWORK
100
AcDbPolyline
 90
118
 70
1
 10
656.4981999999999
 20
1076.0788999999997
 10
716.973
 20
1065.2833999999998
 10
717.4555999999999
 20
1065.1634999999999
 10
717.8979999999999
 20
1064.964
 10
718.2927999999999
 20
1064.6933
 10
718.6324999999999
 20
1064.3603999999998
 10
718.9097999999999
 20
1063.9737999999998
 10
719.1169999999998
 20
1063.5421999999999
 10
719.2468999999999
 20
1063.0742999999998
 10
719.2917999999999
 20
1062.5788999999997
 10
719.2917999999999
 20
1062.5569999999998
 10
719.2920999999999
 20
1004.1252999999998
 10
719.2484999999999
 20
1003.6243999999998
 10
719.1218999999999
 20
1003.1493999999998
 10
718.9187
 20
1002.7095999999998
 10
718.6451999999999
 20
1002.3137999999998
 10
718.3076999999998
 20
1001.9712999999998
 10
717.9125999999999
 20
1001.6911999999998
 10
717.4661999999998
 20
1001.4822999999998
 10
716.9748999999999
 20
1001.3539999999998
 10
656.5000999999999
 20
990.4448999999998
 10
608.2722999999999
 20
981.6951999999999
 10
656.4981999999999
 20
973.0122999999999
 10
716.973
 20
962.1053999999998
 10
717.4643999999998
 20
961.9833999999998
 10
717.9108999999999
 20
961.7772999999997
 10
718.3062999999999
 20
961.4971999999998
 10
718.6442
 20
961.1528999999998
 10
718.9179999999999
 20
960.7542999999998
 10
719.1216
 20
960.3113999999998
 10
719.2484
 20
959.8339999999998
 10
719.2920999999999
 20
959.3321999999998
 10
719.2920999999999
 20
900.9004999999997
 10
719.2484999999999
 20
900.3995999999997
 10
719.1218999999999
 20
899.9245999999998
 10
718.9187
 20
899.4847999999998
 10
718.6451999999999
 20
899.0889999999998
 10
718.3076999999998
 20
898.7464999999997
 10
717.9125999999999
 20
898.4663999999998
 10
717.4661999999998
 20
898.2574999999998
 10
716.9748999999999
 20
898.1291999999999
 10
656.5000999999999
 20
887.3336999999998
 10
542.7050999999999
 20
867.0605999999998
 10
542.1687
 20
867.0073999999997
 10
541.9203999999999
 20
867.0187999999998
 10
541.6757999999999
 20
867.0527999999998
 10
541.4361999999999
 20
867.1085999999998
 10
541.2030999999998
 20
867.1858999999998
 10
540.9779999999998
 20
867.2839999999999
 10
540.7623999999998
 20
867.4023999999998
 10
540.5576999999998
 20
867.5404999999998
 10
540.3652999999999
 20
867.6977999999998
 10
540.1457999999999
 20
867.8985999999998
 10
539.9516999999998
 20
868.1205999999997
 10
539.7842999999999
 20
868.3611999999998
 10
539.6446999999998
 20
868.6180999999998
 10
539.5341999999998
 20
868.8886999999997
 10
539.4536999999999
 20
869.1706999999999
 10
539.4045999999998
 20
869.4614999999999
 10
539.3879999999999
 20
869.7586999999999
 10
539.3879999999999
 20
869.7880999999998
 10
539.3882999999998
 20
917.0381999999997
 10
539.4328999999999
 20
917.5390999999997
 10
539.5621999999998
 20
918.0140999999999
 10
539.7692999999999
 20
918.4538999999997
 10
540.0470999999999
 20
918.8496999999998
 10
540.3888
 20
919.1921999999998
 10
540.7873999999999
 20
919.4722999999998
 10
541.2360999999999
 20
919.6811999999998
 10
541.7277999999999
 20
919.8094999999998
 10
647.9081999999999
 20
937.3092999999999
 10
541.6605999999999
 20
956.3761999999998
 10
541.1904
 20
956.5062999999998
 10
540.7580999999999
 20
956.7181999999998
 10
540.3712999999999
 20
957.0023999999999
 10
540.0376999999999
 20
957.3493999999998
 10
539.7649999999999
 20
957.7495999999999
 10
539.5605999999999
 20
958.1934999999999
 10
539.4323999999999
 20
958.6714999999998
 10
539.3879999999999
 20
959.1739999999998
 10
539.3882999999998
 20
1004.3076999999998
 10
539.4327999999999
 20
1004.8067999999998
 10
539.5611999999999
 20
1005.2772999999999
 10
539.7656999999999
 20
1005.7115999999999
 10
540.0384999999999
 20
1006.1023999999998
 10
540.3719999999998
 20
1006.4419999999998
 10
540.7583999999999
 20
1006.7228999999998
 10
541.1899999999999
 20
1006.9377999999998
 10
541.6589999999999
 20
1007.0789999999998
 10
647.9084999999999
 20
1026.1700999999998
 10
541.7280999999999
 20
1043.6456999999998
 10
541.2397999999998
 20
1043.7739
 10
540.7927999999999
 20
1043.9815999999998
 10
540.3942999999999
 20
1044.2603
 10
540.0518
 20
1044.6010999999999
 10
539.7724999999999
 20
1044.9954999999998
 10
539.5639999999999
 20
1045.4346999999998
 10
539.4333999999999
 20
1045.9100999999998
 10
539.3882999999998
 20
1046.4127999999998
 10
539.3882999999998
 20
1046.4192999999998
 10
539.3882999999998
 20
1093.6009999999999
 10
539.4042
 20
1093.9211999999998
 10
539.4513999999999
 20
1094.2323
 10
539.5295999999998
 20
1094.5316999999998
 10
539.6380999999999
 20
1094.8166999999999
 10
539.7764999999999
 20
1095.0846
 10
539.9440999999999
 20
1095.3328999999999
 10
540.1406
 20
1095.5588999999998
 10
540.3652999999999
 20
1095.7599999999998
 10
540.6062
 20
1095.9569
 10
540.8676999999999
 20
1096.1211999999998
 10
541.1469999999999
 20
1096.2525999999998
 10
541.4408999999999
 20
1096.3504999999998
 10
541.7466
 20
1096.4143
 10
542.0610999999999
 20
1096.4435999999998
 10
542.3814999999998
 20
1096.4379
 10
542.7047999999999
 20
1096.3964999999998
 10
656.4981999999999
 20
1076.0788999999997
  0
LWPOLYLINE
  5
D2
330
17
100
AcDbEntity
  8
REF-ARTWORK
100
AcDbPolyline
 90
115
 70
1
 10
656.4981999999999
 20
719.1113999999998
 10
653.3902999999999
 20
718.8490999999998
 10
650.2026999999998
 20
718.6241999999997
 10
646.9341999999999
 20
718.4360999999999
 10
643.5836999999999
 20
718.2837999999998
 10
640.1501999999999
 20
718.1666999999998
 10
636.6324999999998
 20
718.0839999999998
 10
633.0295999999998
 20
718.0349999999999
 10
629.3403999999999
 20
718.0187999999998
 10
607.3615999999998
 20
718.6919999999998
 10
588.6693999999999
 20
720.7498999999998
 10
573.1539999999999
 20
724.2497999999998
 10
560.7057999999998
 20
729.2488999999998
 10
551.2148999999998
 20
735.8043999999998
 10
544.5715999999999
 20
743.9737999999998
 10
540.6659999999999
 20
753.8141999999998
 10
539.3885999999999
 20
765.3828999999998
 10
539.3882999999998
 20
848.2187999999999
 10
539.4327999999999
 20
848.6992999999998
 10
539.5611999999999
 20
849.1605999999998
 10
539.7656999999999
 20
849.5924999999997
 10
540.0384999999999
 20
849.9845999999998
 10
540.3719999999998
 20
850.3264999999999
 10
540.7583999999999
 20
850.6078999999997
 10
541.1899999999998
 20
850.8182999999998
 10
541.6589999999999
 20
850.9474999999998
 10
565.4554999999999
 20
855.1967999999998
 10
565.7560999999998
 20
855.2240999999998
 10
566.0593999999999
 20
855.2199999999998
 10
566.3616999999999
 20
855.1852999999999
 10
566.6591999999998
 20
855.1209999999999
 10
566.9481999999999
 20
855.0277999999998
 10
567.2247999999998
 20
854.9067999999997
 10
567.4853999999999
 20
854.7586999999999
 10
567.7261999999998
 20
854.5844999999998
 10
567.9663999999999
 20
854.3760999999998
 10
568.1743999999999
 20
854.1447999999998
 10
568.3503999999999
 20
853.8933999999998
 10
568.4942999999998
 20
853.6242999999998
 10
568.6062
 20
853.3403999999998
 10
568.6860999999999
 20
853.0440999999998
 10
568.7339999999999
 20
852.7382999999998
 10
568.7499999999999
 20
852.4254999999998
 10
568.7499999999999
 20
790.6998999999998
 10
569.4013999999999
 20
787.5818999999998
 10
571.3615999999998
 20
784.8234999999997
 10
574.6396999999998
 20
782.4214999999998
 10
579.2445999999999
 20
780.3729999999998
 10
585.1852999999999
 20
778.6750999999998
 10
592.4708999999999
 20
777.3247999999999
 10
601.1103999999999
 20
776.3190999999998
 10
611.1126999999999
 20
775.6550999999998
 10
611.1126999999999
 20
845.1513999999997
 10
611.1694999999999
 20
845.7304999999999
 10
611.3322999999999
 20
846.2669999999998
 10
611.5899999999999
 20
846.7501999999998
 10
611.9314999999999
 20
847.1693999999998
 10
612.3453999999999
 20
847.5140999999999
 10
612.8206999999999
 20
847.7734999999998
 10
613.3460999999999
 20
847.9368999999998
 10
613.9104999999998
 20
847.9937999999997
 10
641.2264999999999
 20
847.9937999999997
 10
641.7821999999999
 20
847.9368999999998
 10
642.3009999999999
 20
847.7734999999998
 10
642.7715999999999
 20
847.5141999999998
 10
643.1823999999999
 20
847.1696999999998
 10
643.5218999999998
 20
846.7506999999998
 10
643.7785999999999
 20
846.2677999999999
 10
643.9410999999999
 20
845.7317999999998
 10
643.9977999999999
 20
845.1533999999998
 10
643.9977999999999
 20
775.6550999999998
 10
645.6792999999999
 20
775.7429999999998
 10
647.3283999999999
 20
775.8374999999999
 10
648.9441999999999
 20
775.9387999999999
 10
650.5260999999999
 20
776.0472999999998
 10
652.0730999999998
 20
776.1631999999997
 10
653.5846999999999
 20
776.2867999999999
 10
655.0599999999998
 20
776.4184999999998
 10
656.4981999999999
 20
776.5585999999998
 10
656.4981999999999
 20
776.5633999999998
 10
663.5495999999998
 20
777.4531999999998
 10
669.6398999999999
 20
778.5899999999998
 10
674.7756999999999
 20
779.9754999999998
 10
678.9633999999999
 20
781.6115999999998
 10
682.2091999999999
 20
783.5001999999998
 10
684.5197999999999
 20
785.6431999999998
 10
685.9013999999999
 20
788.0424999999998
 10
686.3604999999999
 20
790.6998999999998
 10
686.3604999999999
 20
852.9931999999999
 10
686.4173999999999
 20
853.5494999999999
 10
686.5807999999998
 20
854.0687999999998
 10
686.8401999999999
 20
854.5397999999998
 10
687.1848999999999
 20
854.9507999999998
 10
687.6040999999999
 20
855.2904999999998
 10
688.0872999999999
 20
855.5472999999998
 10
688.6237999999998
 20
855.7097999999999
 10
689.2028999999999
 20
855.7664999999998
 10
716.4500999999999
 20
855.7664999999998
 10
717.0291999999998
 20
855.7097999999999
 10
717.5656999999999
 20
855.5472999999998
 10
718.0488999999999
 20
855.2904999999998
 10
718.4680999999998
 20
854.9507999999998
 10
718.8126999999998
 20
854.5397999999998
 10
719.0720999999999
 20
854.0687999999998
 10
719.2355999999999
 20
853.5494999999999
 10
719.2923999999999
 20
852.9931999999999
 10
719.2920999999999
 20
765.3828999999998
 10
718.3873999999998
 20
755.5141999999998
 10
715.6296999999998
 20
746.8838999999998
 10
710.9532999999999
 20
739.4561999999999
 10
704.2927999999999
 20
733.1956999999998
 10
695.5824999999999
 20
728.0664999999998
 10
684.7570999999999
 20
724.0331999999999
 10
671.7507999999999
 20
721.0599999999998
 10
656.4981999999999
 20
719.1113999999998
  0
LWPOLYLINE
  5
D3
330
17
100
AcDbEntity
  8
REF-ARTWORK
100
AcDbPolyline
 90
76
 70
1
 10
449.95939999999985
 20
330.4164999999998
 10
449.9619999999999
 20
330.4119999999998
 10
450.0989999999998
 20
332.3172999999998
 10
450.2549999999999
 20
334.2294999999998
 10
450.42929999999984
 20
336.1457999999998
 10
450.62109999999984
 20
338.0632999999998
 10
450.82989999999984
 20
339.9790999999998
 10
451.05499999999984
 20
341.8903999999998
 10
451.29569999999984
 20
343.7942999999998
 10
451.55139999999983
 20
345.6878999999998
 10
451.95869999999985
 20
348.3545999999998
 10
452.4093999999999
 20
351.09469999999976
 10
452.8976999999999
 20
353.86879999999985
 10
453.4182999999998
 20
356.6374999999998
 10
453.96549999999985
 20
359.3613999999998
 10
454.5337999999998
 20
362.0008999999998
 10
455.1175999999998
 20
364.5166999999998
 10
455.7112999999998
 20
366.86929999999984
 10
457.59949999999986
 20
373.8123999999998
 10
459.53999999999985
 20
380.14449999999977
 10
461.4934999999998
 20
385.8282999999998
 10
463.4202999999999
 20
390.82619999999986
 10
465.28119999999984
 20
395.10069999999985
 10
467.0364999999998
 20
398.61429999999984
 10
468.64679999999987
 20
401.3295999999998
 10
470.0726999999998
 20
403.20899999999983
 10
471.5235999999999
 20
404.55849999999987
 10
472.96499999999986
 20
405.4499999999998
 10
474.37649999999985
 20
405.9306999999998
 10
475.73789999999985
 20
406.04769999999985
 10
477.02909999999986
 20
405.84829999999977
 10
478.2295999999999
 20
405.37959999999987
 10
479.31939999999986
 20
404.68889999999976
 10
480.27819999999986
 20
403.8232999999998
 10
514.7545999999999
 20
368.16489999999976
 10
521.9564999999999
 20
360.70989999999983
 10
529.0183999999998
 20
353.3924999999998
 10
535.7277999999999
 20
346.4373999999998
 10
541.8721999999998
 20
340.06929999999977
 10
547.2388999999998
 20
334.5129999999998
 10
551.6153999999999
 20
329.99339999999984
 10
554.7890999999998
 20
326.7350999999999
 10
556.5475999999999
 20
324.96299999999985
 10
557.3322999999998
 20
323.9147999999998
 10
557.9120999999999
 20
322.6093999999998
 10
558.1819999999999
 20
321.1707999999999
 10
558.0368999999998
 20
319.72329999999977
 10
557.3718999999999
 20
318.3908999999999
 10
556.0819999999999
 20
317.2978999999998
 10
554.0621999999998
 20
316.56839999999977
 10
551.2075999999998
 20
316.3264999999998
 10
505.61749999999984
 20
316.8942999999998
 10
503.71159999999986
 20
316.9381999999998
 10
500.11479999999983
 20
317.0219999999998
 10
495.19639999999987
 20
317.14909999999986
 10
489.32599999999985
 20
317.3227999999998
 10
482.87289999999985
 20
317.5466999999999
 10
476.20639999999986
 20
317.8240999999998
 10
469.6958999999998
 20
318.1582999999998
 10
463.7108999999998
 20
318.55269999999985
 10
462.30109999999985
 20
318.63919999999985
 10
460.9646999999999
 20
318.7099999999998
 10
459.69379999999984
 20
318.7896999999998
 10
458.4807999999998
 20
318.90319999999986
 10
457.31779999999986
 20
319.0750999999998
 10
456.19689999999986
 20
319.3300999999998
 10
455.1104999999999
 20
319.69309999999984
 10
454.05059999999986
 20
320.1887999999998
 10
452.99339999999984
 20
320.9114999999998
 10
452.07619999999986
 20
321.8377999999998
 10
451.3068999999998
 20
322.94529999999986
 10
450.69349999999986
 20
324.21159999999986
 10
450.2440999999999
 20
325.61429999999984
 10
449.96659999999986
 20
327.13089999999977
 10
449.8690999999999
 20
328.73919999999987
 10
449.95939999999985
 20
330.4164999999998
  0
LWPOLYLINE
  5
D4
330
17
100
AcDbEntity
  8
REF-ARTWORK
100
AcDbPolyline
 90
74
 70
1
 10
590.8434999999998
 20
457.52719999999977
 10
600.6021999999998
 20
458.2707999999998
 10
610.2538999999998
 20
458.62059999999985
 10
619.6870999999999
 20
458.6429999999998
 10
628.7906999999999
 20
458.4042999999998
 10
637.4533999999999
 20
457.97059999999976
 10
645.5637999999999
 20
457.4082999999998
 10
653.0107999999999
 20
456.78359999999986
 10
659.6829999999999
 20
456.1628999999998
 10
686.0608999999998
 20
451.1928999999998
 10
707.5165999999999
 20
442.5364999999998
 10
724.5880999999998
 20
431.1623999999998
 10
737.8136999999998
 20
418.03949999999986
 10
747.7313999999999
 20
404.1366999999998
 10
754.8794999999999
 20
390.4227999999998
 10
759.7959999999998
 20
377.8666999999998
 10
763.0191999999998
 20
367.4372999999998
 10
764.1156999999998
 20
363.1339999999998
 10
765.1983999999999
 20
358.0623999999998
 10
766.2300999999999
 20
352.5256999999998
 10
767.1733999999999
 20
346.8272999999998
 10
767.9909999999999
 20
341.2706999999998
 10
768.6454999999999
 20
336.15909999999985
 10
769.0996999999999
 20
331.7957999999999
 10
769.3161999999999
 20
328.4843999999998
 10
769.2088999999999
 20
325.07629999999983
 10
768.6801999999998
 20
322.3430999999998
 10
767.8031999999998
 20
320.2203999999998
 10
766.6507999999999
 20
318.64359999999976
 10
765.2959999999998
 20
317.5482999999998
 10
763.8116999999999
 20
316.87009999999987
 10
762.2710999999998
 20
316.54449999999986
 10
760.7468999999999
 20
316.50699999999983
 10
744.0216999999998
 20
319.17349999999976
 10
727.6262999999999
 20
324.90279999999984
 10
712.1463999999999
 20
332.64149999999984
 10
698.1677999999998
 20
341.33579999999984
 10
686.2759999999998
 20
349.93209999999976
 10
677.0566999999999
 20
357.3767999999998
 10
671.0956999999999
 20
362.6162999999998
 10
668.9784999999998
 20
364.5968999999998
 10
668.1327999999999
 20
365.2649999999999
 10
666.8569999999999
 20
366.42999999999984
 10
665.1998999999998
 20
368.03489999999977
 10
663.2105999999999
 20
370.02279999999985
 10
660.9379999999999
 20
372.3367999999998
 10
658.4309999999998
 20
374.91989999999987
 10
655.7386999999999
 20
377.7150999999998
 10
652.9098999999999
 20
380.6655999999998
 10
646.7420999999998
 20
386.95169999999985
 10
637.6508999999999
 20
396.3562999999998
 10
626.7908999999999
 20
407.65989999999977
 10
615.3163999999998
 20
419.6428999999998
 10
604.3820999999998
 20
431.0858999999998
 10
595.1424999999998
 20
440.7692999999998
 10
588.7520999999998
 20
447.4736999999998
 10
586.3653999999999
 20
449.9794999999998
 10
586.0672999999998
 20
450.28959999999984
 10
585.8046999999999
 20
450.62609999999984
 10
585.5787999999999
 20
450.98569999999984
 10
585.3909999999998
 20
451.36549999999977
 10
585.2425999999998
 20
451.76239999999984
 10
585.1348999999999
 20
452.17319999999984
 10
585.0693999999999
 20
452.5949999999998
 10
585.0471999999999
 20
453.02459999999985
 10
585.1270999999998
 20
453.9653999999998
 10
585.3596999999999
 20
454.7982999999998
 10
585.7342999999998
 20
455.52039999999977
 10
586.2402999999998
 20
456.12869999999987
 10
586.8670999999998
 20
456.6203999999998
 10
587.6038999999998
 20
456.9925999999998
 10
588.4401999999999
 20
457.24249999999984
 10
589.3651999999998
 20
457.3670999999998
 10
590.8434999999998
 20
457.52719999999977
  0
LWPOLYLINE
  5
D5
330
17
100
AcDbEntity
  8
REF-ARTWORK
100
AcDbPolyline
 90
68
 70
1
 10
493.11679999999984
 20
193.39669999999978
 10
538.8872999999999
 20
240.64519999999982
 10
543.9038999999998
 20
245.66799999999978
 10
548.8610999999999
 20
250.3481999999998
 10
553.7574999999998
 20
254.70119999999986
 10
558.5914999999999
 20
258.74249999999984
 10
563.3615999999998
 20
262.48739999999987
 10
568.0660999999999
 20
265.9514999999998
 10
572.7035999999998
 20
269.15009999999984
 10
577.2724999999998
 20
272.09879999999987
 10
584.2020999999999
 20
276.0950999999998
 10
592.0318999999998
 20
279.9600999999998
 10
600.5499999999998
 20
283.5777999999998
 10
609.5441999999998
 20
286.83209999999985
 10
618.8026999999998
 20
289.60699999999986
 10
628.1132999999999
 20
291.78639999999984
 10
637.2639999999999
 20
293.25419999999986
 10
646.0428999999998
 20
293.8943999999998
 10
646.5471999999999
 20
293.91869999999983
 10
647.9674999999999
 20
293.98239999999987
 10
650.1649999999998
 20
294.07169999999985
 10
653.0008999999999
 20
294.17269999999985
 10
656.3363999999999
 20
294.2715999999998
 10
660.0325999999999
 20
294.3544999999998
 10
663.9507999999998
 20
294.40769999999986
 10
667.9520999999999
 20
294.41729999999984
 10
669.3600999999999
 20
294.4563999999998
 10
670.7647999999998
 20
294.48749999999984
 10
672.1566999999999
 20
294.5088999999998
 10
673.5259999999998
 20
294.51919999999984
 10
674.8633999999998
 20
294.51679999999976
 10
676.1590999999999
 20
294.4999999999998
 10
677.4036999999998
 20
294.46739999999977
 10
678.5874999999999
 20
294.41729999999984
 10
679.9992999999998
 20
294.1053999999998
 10
681.1300999999999
 20
293.4482999999998
 10
681.9753999999998
 20
292.5312999999999
 10
682.5310999999998
 20
291.4396999999998
 10
682.7927999999998
 20
290.2584999999998
 10
682.7560999999998
 20
289.07299999999987
 10
682.4166999999999
 20
287.9682999999998
 10
681.7703999999999
 20
287.0296999999998
 10
562.3858999999999
 20
162.5121999999999
 10
560.7293999999998
 20
160.98389999999972
 10
558.9628999999999
 20
159.7444999999998
 10
557.1105999999999
 20
158.77359999999976
 10
555.1967999999998
 20
158.05099999999993
 10
553.2455999999999
 20
157.5565999999999
 10
551.2812999999999
 20
157.26989999999978
 10
549.3280999999998
 20
157.17079999999987
 10
547.4101999999998
 20
157.2389999999998
 10
539.8917999999999
 20
158.29149999999981
 10
531.9804999999999
 20
160.26049999999987
 10
523.9866999999998
 20
162.94809999999984
 10
516.2204999999999
 20
166.15639999999985
 10
508.99239999999986
 20
169.68749999999977
 10
502.61269999999985
 20
173.34359999999992
 10
497.39169999999984
 20
176.92669999999976
 10
493.63969999999983
 20
180.23889999999983
 10
491.95639999999986
 20
182.35879999999975
 10
490.9073999999998
 20
184.3653999999999
 10
490.40679999999986
 20
186.24739999999974
 10
490.36829999999986
 20
187.9935999999998
 10
490.70619999999985
 20
189.59289999999987
 10
491.33419999999984
 20
191.0338999999999
 10
492.16639999999984
 20
192.30529999999976
 10
493.11679999999984
 20
193.3960999999997
 10
493.11679999999984
 20
193.39669999999978
  0
LWPOLYLINE
  5
D6
330
17
100
AcDbEntity
  8
REF-ARTWORK
100
AcDbPolyline
 90
75
 70
1
 10
449.95749999999987
 20
280.6216999999998
 10
449.8670999999998
 20
282.31129999999985
 10
449.9646999999999
 20
283.92309999999986
 10
450.24219999999985
 20
285.43669999999986
 10
450.6915999999999
 20
286.83199999999977
 10
451.30499999999984
 20
288.08889999999985
 10
452.0742999999999
 20
289.1870999999999
 10
452.99149999999986
 20
290.10659999999984
 10
454.0486999999998
 20
290.82709999999986
 10
455.1084999999998
 20
291.3296999999998
 10
456.1949999999998
 20
291.69629999999984
 10
457.31579999999985
 20
291.95259999999985
 10
458.47889999999984
 20
292.1245999999999
 10
459.69189999999986
 20
292.23799999999983
 10
460.9626999999998
 20
292.3186999999998
 10
462.29909999999984
 20
292.3925999999998
 10
463.70889999999986
 20
292.4854999999998
 10
469.69389999999987
 20
292.8816999999998
 10
476.20439999999985
 20
293.2200999999998
 10
482.87089999999984
 20
293.5020999999998
 10
489.3240999999999
 20
293.72929999999985
 10
495.19449999999983
 20
293.90329999999983
 10
500.11289999999985
 20
294.0256999999998
 10
503.7096999999999
 20
294.09799999999984
 10
505.61559999999986
 20
294.1216999999998
 10
551.2056999999999
 20
294.68939999999986
 10
554.0602999999999
 20
294.44709999999986
 10
556.0800999999999
 20
293.7182999999998
 10
557.3699999999999
 20
292.62779999999987
 10
558.0349999999999
 20
291.3005999999998
 10
558.1799999999998
 20
289.86149999999986
 10
557.9101999999998
 20
288.4354999999998
 10
557.3303999999998
 20
287.14739999999983
 10
556.5455999999998
 20
286.1220999999998
 10
554.7890999999998
 20
284.34969999999987
 10
551.6199999999999
 20
281.09029999999984
 10
547.2491999999999
 20
276.5677999999998
 10
541.8876999999999
 20
271.00639999999987
 10
535.7462999999998
 20
264.62999999999977
 10
529.0360999999998
 20
257.66259999999977
 10
521.9678999999999
 20
250.32829999999979
 10
514.7525999999998
 20
242.85109999999986
 10
480.27589999999987
 20
207.26139999999987
 10
479.31709999999987
 20
206.39509999999984
 10
478.2273999999999
 20
205.7040999999998
 10
477.02679999999987
 20
205.23529999999982
 10
475.73569999999984
 20
205.03589999999986
 10
474.37419999999986
 20
205.15289999999982
 10
472.9626999999998
 20
205.6334999999998
 10
471.52139999999986
 20
206.5247999999998
 10
470.0704999999998
 20
207.87369999999987
 10
468.64459999999985
 20
209.7530999999998
 10
467.0341999999998
 20
212.46799999999985
 10
465.27889999999985
 20
215.98019999999985
 10
463.41809999999987
 20
220.2516999999998
 10
461.4911999999998
 20
225.2443999999998
 10
459.53779999999983
 20
230.92009999999982
 10
457.5971999999998
 20
237.24089999999978
 10
455.70899999999983
 20
244.16859999999986
 10
455.1152999999998
 20
246.53379999999981
 10
454.5314999999998
 20
249.05429999999978
 10
453.96319999999986
 20
251.69359999999983
 10
453.4159999999998
 20
254.4151999999998
 10
452.8953999999999
 20
257.1824999999998
 10
452.40709999999984
 20
259.9591999999998
 10
451.95639999999986
 20
262.7086999999998
 10
451.54909999999984
 20
265.39449999999977
 10
451.1412999999999
 20
268.4631999999998
 10
450.80179999999984
 20
271.3213999999998
 10
450.5260999999998
 20
273.9078999999998
 10
450.30999999999983
 20
276.1614999999998
 10
450.14939999999984
 20
278.02099999999984
 10
450.03999999999985
 20
279.42499999999984
 10
449.9773999999999
 20
280.3122999999998
 10
449.95749999999987
 20
280.6216999999998
  0
ENDSEC
  0
SECTION
  2
OBJECTS
  0
DICTIONARY
  5
A
330
0
100
AcDbDictionary
281
1
  3
ACAD_COLOR
350
B
  3
ACAD_GROUP
350
C
  3
ACAD_LAYOUT
350
D
  3
ACAD_MATERIAL
350
E
  3
ACAD_MLEADERSTYLE
350
F
  3
ACAD_MLINESTYLE
350
10
  3
ACAD_PLOTSETTINGS
350
11
  3
ACAD_PLOTSTYLENAME
350
12
  3
ACAD_SCALELIST
350
14
  3
ACAD_TABLESTYLE
350
15
  3
ACAD_VISUALSTYLE
350
16
  3
EZDXF_META
350
2D
  0
DICTIONARY
  5
B
330
A
100
AcDbDictionary
281
1
  0
DICTIONARY
  5
C
330
A
100
AcDbDictionary
281
1
  0
DICTIONARY
  5
D
330
A
100
AcDbDictionary
281
1
  3
Model
350
1A
  3
Layout1
350
1E
  0
DICTIONARY
  5
E
330
A
100
AcDbDictionary
281
1
  3
ByBlock
350
1F
  3
ByLayer
350
20
  3
Global
350
21
  0
DICTIONARY
  5
F
330
A
100
AcDbDictionary
281
1
  3
Standard
350
2C
  0
DICTIONARY
  5
10
330
A
100
AcDbDictionary
281
1
  3
Standard
350
22
  0
DICTIONARY
  5
11
330
A
100
AcDbDictionary
281
1
  0
ACDBDICTIONARYWDFLT
  5
12
330
A
100
AcDbDictionary
281
1
  3
Normal
350
13
100
AcDbDictionaryWithDefault
340
13
  0
ACDBPLACEHOLDER
  5
13
330
12
  0
DICTIONARY
  5
14
330
A
100
AcDbDictionary
281
1
  0
DICTIONARY
  5
15
330
A
100
AcDbDictionary
281
1
  0
DICTIONARY
  5
16
330
A
100
AcDbDictionary
281
1
  3
2dWireframe
350
5A
  3
Basic
350
5B
  3
Brighten
350
5C
  3
ColorChange
350
5D
  3
Conceptual
350
5E
  3
Dim
350
5F
  3
EdgeColorOff
350
60
  3
Facepattern
350
61
  3
Flat
350
62
  3
FlatWithEdges
350
63
  3
Gouraud
350
64
  3
GouraudWithEdges
350
65
  3
Hidden
350
66
  3
JitterOff
350
67
  3
Linepattern
350
68
  3
Modeling
350
69
  3
OverhangOff
350
6A
  3
Realistic
350
6B
  3
Shaded
350
6C
  3
Shaded with edges
350
6D
  3
Shades of Gray
350
6E
  3
Sketchy
350
6F
  3
Thicken
350
70
  3
Wireframe
350
71
  3
X-Ray
350
72
  0
LAYOUT
  5
1A
330
D
100
AcDbPlotSettings
  1

  4
A3
  6

 40
7.5
 41
20.0
 42
7.5
 43
20.0
 44
420.0
 45
297.0
 46
0.0
 47
0.0
 48
0.0
 49
0.0
140
0.0
141
0.0
142
1.0
143
1.0
 70
1024
 72
1
 73
0
 74
5
  7

 75
16
 76
0
 77
2
 78
300
147
1.0
148
0.0
149
0.0
100
AcDbLayout
  1
Model
 70
1
 71
0
 10
0.0
 20
0.0
 11
420.0
 21
297.0
 12
0.0
 22
0.0
 32
0.0
 14
1e+20
 24
1e+20
 34
1e+20
 15
-1e+20
 25
-1e+20
 35
-1e+20
146
0.0
 13
0.0
 23
0.0
 33
0.0
 16
1.0
 26
0.0
 36
0.0
 17
0.0
 27
1.0
 37
0.0
 76
1
330
17
  0
LAYOUT
  5
1E
330
D
100
AcDbPlotSettings
  1

  4
A3
  6

 40
7.5
 41
20.0
 42
7.5
 43
20.0
 44
420.0
 45
297.0
 46
0.0
 47
0.0
 48
0.0
 49
0.0
140
0.0
141
0.0
142
1.0
143
1.0
 70
0
 72
1
 73
0
 74
5
  7

 75
16
 76
0
 77
2
 78
300
147
1.0
148
0.0
149
0.0
100
AcDbLayout
  1
Layout1
 70
1
 71
1
 10
0.0
 20
0.0
 11
420.0
 21
297.0
 12
0.0
 22
0.0
 32
0.0
 14
1e+20
 24
1e+20
 34
1e+20
 15
-1e+20
 25
-1e+20
 35
-1e+20
146
0.0
 13
0.0
 23
0.0
 33
0.0
 16
1.0
 26
0.0
 36
0.0
 17
0.0
 27
1.0
 37
0.0
 76
1
330
1B
  0
MATERIAL
  5
1F
102
{ACAD_REACTORS
330
E
102
}
330
E
100
AcDbMaterial
  1
ByBlock
  2

 70
0
 40
1.0
 71
1
 41
1.0
 91
-1023410177
 42
1.0
 72
1
  3

 73
1
 74
1
 75
1
 44
0.5
 73
0
 45
1.0
 46
1.0
 77
1
  4

 78
1
 79
1
170
1
 48
1.0
171
1
  6

172
1
173
1
174
1
140
1.0
141
1.0
175
1
  7

176
1
177
1
178
1
143
1.0
179
1
  8

270
1
271
1
272
1
145
1.0
146
1.0
273
1
  9

274
1
275
1
276
1
 42
1.0
 72
1
  3

 73
1
 74
1
 75
1
 94
63
  0
MATERIAL
  5
20
102
{ACAD_REACTORS
330
E
102
}
330
E
100
AcDbMaterial
  1
ByLayer
  2

 70
0
 40
1.0
 71
1
 41
1.0
 91
-1023410177
 42
1.0
 72
1
  3

 73
1
 74
1
 75
1
 44
0.5
 73
0
 45
1.0
 46
1.0
 77
1
  4

 78
1
 79
1
170
1
 48
1.0
171
1
  6

172
1
173
1
174
1
140
1.0
141
1.0
175
1
  7

176
1
177
1
178
1
143
1.0
179
1
  8

270
1
271
1
272
1
145
1.0
146
1.0
273
1
  9

274
1
275
1
276
1
 42
1.0
 72
1
  3

 73
1
 74
1
 75
1
 94
63
  0
MATERIAL
  5
21
102
{ACAD_REACTORS
330
E
102
}
330
E
100
AcDbMaterial
  1
Global
  2

 70
0
 40
1.0
 71
1
 41
1.0
 91
-1023410177
 42
1.0
 72
1
  3

 73
1
 74
1
 75
1
 44
0.5
 73
0
 45
1.0
 46
1.0
 77
1
  4

 78
1
 79
1
170
1
 48
1.0
171
1
  6

172
1
173
1
174
1
140
1.0
141
1.0
175
1
  7

176
1
177
1
178
1
143
1.0
179
1
  8

270
1
271
1
272
1
145
1.0
146
1.0
273
1
  9

274
1
275
1
276
1
 42
1.0
 72
1
  3

 73
1
 74
1
 75
1
 94
63
  0
MLINESTYLE
  5
22
102
{ACAD_REACTORS
330
10
102
}
330
10
100
AcDbMlineStyle
  2
Standard
 70
0
  3

 62
256
 51
90.0
 52
90.0
 71
2
 49
0.5
 62
256
  6
BYLAYER
 49
-0.5
 62
256
  6
BYLAYER
  0
MLEADERSTYLE
  5
2C
102
{ACAD_REACTORS
330
F
102
}
330
F
100
AcDbMLeaderStyle
179
2
170
2
171
1
172
0
 90
2
 40
0.0
 41
0.0
173
1
 91
-1056964608
 92
-2
290
1
 42
2.0
291
1
 43
8.0
  3
Standard
 44
4.0
300

342
29
174
1
175
1
176
0
178
1
 93
-1056964608
 45
4.0
292
0
297
0
 46
4.0
 94
-1056964608
 47
1.0
 49
1.0
140
1.0
294
1
141
0.0
177
0
142
1.0
295
0
296
0
143
3.75
271
0
272
9
273
9
  0
DICTIONARY
  5
2D
330
A
100
AcDbDictionary
280
1
281
1
  3
CREATED_BY_EZDXF
350
2E
  3
WRITTEN_BY_EZDXF
350
D9
  0
DICTIONARYVAR
  5
2E
330
2D
100
DictionaryVariables
280
0
  1
1.4.4 @ 2026-08-18T12:54:50.890356+00:00
  0
VISUALSTYLE
  5
5A
102
{ACAD_REACTORS
330
16
102
}
330
16
100
AcDbVisualStyle
  2
2dWireframe
 70
4
 90
0
 40
0.6
 62
7
290
0
291
0
  0
VISUALSTYLE
  5
5B
102
{ACAD_REACTORS
330
16
102
}
330
16
100
AcDbVisualStyle
  2
Basic
 70
7
 90
1
 40
0.6
 62
7
290
0
291
1
  0
VISUALSTYLE
  5
5C
102
{ACAD_REACTORS
330
16
102
}
330
16
100
AcDbVisualStyle
  2
Brighten
 70
12
 90
2
 40
0.6
 62
7
290
0
291
1
  0
VISUALSTYLE
  5
5D
102
{ACAD_REACTORS
330
16
102
}
330
16
100
AcDbVisualStyle
  2
ColorChange
 70
16
 90
2
 40
0.6
 62
8
290
0
291
1
  0
VISUALSTYLE
  5
5E
102
{ACAD_REACTORS
330
16
102
}
330
16
100
AcDbVisualStyle
  2
Conceptual
 70
9
 90
3
 40
0.6
 62
7
290
0
291
0
  0
VISUALSTYLE
  5
5F
102
{ACAD_REACTORS
330
16
102
}
330
16
100
AcDbVisualStyle
  2
Dim
 70
11
 90
2
 40
0.6
 62
7
290
0
291
1
  0
VISUALSTYLE
  5
60
102
{ACAD_REACTORS
330
16
102
}
330
16
100
AcDbVisualStyle
  2
EdgeColorOff
 70
22
 90
2
 40
0.6
 62
7
290
0
291
1
  0
VISUALSTYLE
  5
61
102
{ACAD_REACTORS
330
16
102
}
330
16
100
AcDbVisualStyle
  2
Facepattern
 70
15
 90
2
 40
0.6
 62
7
290
0
291
1
  0
VISUALSTYLE
  5
62
102
{ACAD_REACTORS
330
16
102
}
330
16
100
AcDbVisualStyle
  2
Flat
 70
0
 90
2
 40
0.6
 62
7
290
0
291
1
  0
VISUALSTYLE
  5
63
102
{ACAD_REACTORS
330
16
102
}
330
16
100
AcDbVisualStyle
  2
FlatWithEdges
 70
1
 90
2
 40
0.6
 62
7
290
0
291
1
  0
VISUALSTYLE
  5
64
102
{ACAD_REACTORS
330
16
102
}
330
16
100
AcDbVisualStyle
  2
Gouraud
 70
2
 90
2
 40
0.6
 62
7
290
0
291
1
  0
VISUALSTYLE
  5
65
102
{ACAD_REACTORS
330
16
102
}
330
16
100
AcDbVisualStyle
  2
GouraudWithEdges
 70
3
 90
2
 40
0.6
 62
7
290
0
291
1
  0
VISUALSTYLE
  5
66
102
{ACAD_REACTORS
330
16
102
}
330
16
100
AcDbVisualStyle
  2
Hidden
 70
6
 90
1
 40
0.6
 62
7
290
0
291
0
  0
VISUALSTYLE
  5
67
102
{ACAD_REACTORS
330
16
102
}
330
16
100
AcDbVisualStyle
  2
JitterOff
 70
20
 90
2
 40
0.6
 62
7
290
0
291
1
  0
VISUALSTYLE
  5
68
102
{ACAD_REACTORS
330
16
102
}
330
16
100
AcDbVisualStyle
  2
Linepattern
 70
14
 90
2
 40
0.6
 62
7
290
0
291
1
  0
VISUALSTYLE
  5
69
102
{ACAD_REACTORS
330
16
102
}
330
16
100
AcDbVisualStyle
  2
Modeling
 70
10
 90
2
 40
0.6
 62
7
290
0
291
0
  0
VISUALSTYLE
  5
6A
102
{ACAD_REACTORS
330
16
102
}
330
16
100
AcDbVisualStyle
  2
OverhangOff
 70
21
 90
2
 40
0.6
 62
7
290
0
291
1
  0
VISUALSTYLE
  5
6B
102
{ACAD_REACTORS
330
16
102
}
330
16
100
AcDbVisualStyle
  2
Realistic
 70
8
 90
2
 40
0.6
 62
7
290
0
291
0
  0
VISUALSTYLE
  5
6C
102
{ACAD_REACTORS
330
16
102
}
330
16
100
AcDbVisualStyle
  2
Shaded
 70
27
 90
2
 40
0.6
 62
7
290
0
291
0
  0
VISUALSTYLE
  5
6D
102
{ACAD_REACTORS
330
16
102
}
330
16
100
AcDbVisualStyle
  2
Shaded with edges
 70
26
 90
2
 40
0.6
 62
7
290
0
291
0
  0
VISUALSTYLE
  5
6E
102
{ACAD_REACTORS
330
16
102
}
330
16
100
AcDbVisualStyle
  2
Shades of Gray
 70
23
 90
2
 40
0.6
 62
7
290
0
291
0
  0
VISUALSTYLE
  5
6F
102
{ACAD_REACTORS
330
16
102
}
330
16
100
AcDbVisualStyle
  2
Sketchy
 70
24
 90
1
 40
0.6
 62
7
290
0
291
0
  0
VISUALSTYLE
  5
70
102
{ACAD_REACTORS
330
16
102
}
330
16
100
AcDbVisualStyle
  2
Thicken
 70
13
 90
2
 40
0.6
 62
7
290
0
291
1
  0
VISUALSTYLE
  5
71
102
{ACAD_REACTORS
330
16
102
}
330
16
100
AcDbVisualStyle
  2
Wireframe
 70
5
 90
0
 40
0.6
 62
7
290
0
291
0
  0
VISUALSTYLE
  5
72
102
{ACAD_REACTORS
330
16
102
}
330
16
100
AcDbVisualStyle
  2
X-Ray
 70
25
 90
2
 40
0.5
 62
7
290
0
291
0
  0
DICTIONARYVAR
  5
D9
330
2D
100
DictionaryVariables
280
0
  1
1.4.4 @ 2026-08-18T12:54:50.905381+00:00
  0
ENDSEC
  0
EOF
